<svg width="370" height="211" viewBox="0 0 370 211" fill="none" xmlns="http://www.w3.org/2000/svg">
<path d="M147.148 51.8281L150.102 25.8125H178.789V34.2852H158.434L157.168 45.2891C159.582 44 162.148 43.3555 164.867 43.3555C169.742 43.3555 173.562 44.8672 176.328 47.8906C179.094 50.9141 180.477 55.1445 180.477 60.582C180.477 63.8867 179.773 66.8516 178.367 69.4766C176.984 72.0781 174.992 74.1055 172.391 75.5586C169.789 76.9883 166.719 77.7031 163.18 77.7031C160.086 77.7031 157.215 77.082 154.566 75.8398C151.918 74.5742 149.82 72.8047 148.273 70.5312C146.75 68.2578 145.941 65.668 145.848 62.7617H155.902C156.113 64.8945 156.852 66.5586 158.117 67.7539C159.406 68.9258 161.082 69.5117 163.145 69.5117C165.441 69.5117 167.211 68.6914 168.453 67.0508C169.695 65.3867 170.316 63.043 170.316 60.0195C170.316 57.1133 169.602 54.8867 168.172 53.3398C166.742 51.793 164.715 51.0195 162.09 51.0195C159.676 51.0195 157.719 51.6523 156.219 52.918L155.234 53.832L147.148 51.8281ZM221.785 31.5078L201.992 77H191.27L211.098 34.0391H185.645V25.8125H221.785V31.5078Z" fill="#5795AA"/>
<path d="M99.5 51.5H48V192H319V51.5H269" stroke="#B7C136"/>
<path d="M108.381 123.104C108.832 123.104 109.226 122.968 109.563 122.694C109.901 122.421 110.088 122.079 110.124 121.669H111.32C111.298 122.093 111.152 122.496 110.883 122.879C110.614 123.262 110.254 123.567 109.803 123.795C109.356 124.023 108.882 124.137 108.381 124.137C107.374 124.137 106.572 123.802 105.975 123.132C105.382 122.457 105.086 121.537 105.086 120.37V120.158C105.086 119.438 105.218 118.798 105.482 118.237C105.747 117.677 106.125 117.242 106.617 116.932C107.114 116.622 107.7 116.467 108.374 116.467C109.203 116.467 109.892 116.715 110.438 117.212C110.99 117.709 111.284 118.354 111.32 119.146H110.124C110.088 118.668 109.905 118.276 109.577 117.971C109.254 117.661 108.853 117.506 108.374 117.506C107.731 117.506 107.232 117.738 106.877 118.203C106.526 118.663 106.351 119.331 106.351 120.206V120.445C106.351 121.298 106.526 121.954 106.877 122.414C107.228 122.874 107.729 123.104 108.381 123.104ZM115.812 124.137C114.809 124.137 113.993 123.809 113.364 123.152C112.735 122.492 112.421 121.61 112.421 120.507V120.274C112.421 119.541 112.56 118.887 112.838 118.312C113.12 117.734 113.512 117.283 114.014 116.959C114.52 116.631 115.066 116.467 115.654 116.467C116.616 116.467 117.363 116.784 117.896 117.417C118.43 118.05 118.696 118.957 118.696 120.138V120.664H113.686C113.704 121.393 113.916 121.983 114.321 122.435C114.731 122.881 115.251 123.104 115.88 123.104C116.326 123.104 116.705 123.013 117.015 122.831C117.325 122.649 117.596 122.407 117.828 122.106L118.601 122.708C117.981 123.66 117.051 124.137 115.812 124.137ZM115.654 117.506C115.144 117.506 114.715 117.693 114.369 118.066C114.023 118.436 113.809 118.955 113.727 119.625H117.432V119.529C117.395 118.887 117.222 118.39 116.912 118.039C116.602 117.684 116.183 117.506 115.654 117.506ZM124.425 122.325L126.94 116.604H128.52V124H127.255V118.62L124.862 124H123.987L121.547 118.504V124H120.282V116.604H121.923L124.425 122.325ZM131.938 119.153H133.858C134.697 119.162 135.36 119.381 135.848 119.81C136.335 120.238 136.579 120.819 136.579 121.553C136.579 122.291 136.328 122.883 135.827 123.33C135.326 123.777 134.651 124 133.804 124H130.673V116.604H131.938V119.153ZM131.938 120.186V122.968H133.817C134.291 122.968 134.658 122.847 134.918 122.605C135.178 122.359 135.308 122.024 135.308 121.601C135.308 121.19 135.18 120.855 134.925 120.596C134.674 120.331 134.321 120.195 133.865 120.186H131.938ZM143.812 116.604V124H142.54V121.122H140.633L138.89 124H137.522L139.382 120.931C138.908 120.757 138.543 120.491 138.288 120.131C138.037 119.766 137.912 119.342 137.912 118.859C137.912 118.185 138.165 117.643 138.671 117.232C139.177 116.818 139.854 116.608 140.701 116.604H143.812ZM139.184 118.873C139.184 119.233 139.307 119.525 139.553 119.748C139.799 119.967 140.125 120.078 140.53 120.083H142.54V117.629H140.722C140.252 117.629 139.879 117.745 139.601 117.978C139.323 118.205 139.184 118.504 139.184 118.873ZM150.101 122.325L152.616 116.604H154.195V124H152.931V118.62L150.538 124H149.663L147.223 118.504V124H145.958V116.604H147.599L150.101 122.325ZM156.191 125.982L155.474 125.49C155.902 124.893 156.125 124.278 156.144 123.645V122.503H157.381V123.494C157.381 123.954 157.267 124.415 157.039 124.875C156.816 125.335 156.533 125.704 156.191 125.982ZM162.118 120.233C162.118 119.509 162.259 118.857 162.542 118.278C162.829 117.7 163.226 117.253 163.731 116.938C164.242 116.624 164.823 116.467 165.475 116.467C166.482 116.467 167.295 116.815 167.915 117.513C168.539 118.21 168.852 119.137 168.852 120.295V120.384C168.852 121.104 168.713 121.751 168.435 122.325C168.161 122.895 167.767 123.339 167.252 123.658C166.742 123.977 166.154 124.137 165.488 124.137C164.486 124.137 163.672 123.788 163.048 123.091C162.428 122.394 162.118 121.471 162.118 120.322V120.233ZM163.39 120.384C163.39 121.204 163.579 121.863 163.957 122.359C164.34 122.856 164.85 123.104 165.488 123.104C166.131 123.104 166.641 122.854 167.02 122.353C167.398 121.847 167.587 121.14 167.587 120.233C167.587 119.422 167.393 118.766 167.006 118.265C166.623 117.759 166.113 117.506 165.475 117.506C164.85 117.506 164.347 117.754 163.964 118.251C163.581 118.748 163.39 119.459 163.39 120.384ZM173.685 117.027C174.614 117.027 175.357 117.34 175.913 117.964C176.474 118.584 176.754 119.402 176.754 120.418V120.534C176.754 121.231 176.619 121.856 176.351 122.407C176.082 122.954 175.694 123.38 175.188 123.686C174.687 123.986 174.108 124.137 173.452 124.137C172.459 124.137 171.659 123.806 171.053 123.146C170.447 122.48 170.144 121.589 170.144 120.473V119.857C170.144 118.303 170.431 117.068 171.005 116.152C171.584 115.236 172.436 114.678 173.562 114.478C174.2 114.364 174.63 114.225 174.854 114.061C175.077 113.896 175.188 113.671 175.188 113.384H176.228C176.228 113.953 176.098 114.398 175.838 114.717C175.583 115.036 175.173 115.261 174.607 115.394L173.664 115.605C172.912 115.783 172.347 116.084 171.969 116.508C171.595 116.927 171.351 117.488 171.237 118.189C171.907 117.415 172.723 117.027 173.685 117.027ZM173.438 118.066C172.819 118.066 172.326 118.276 171.962 118.695C171.597 119.11 171.415 119.687 171.415 120.425V120.534C171.415 121.327 171.597 121.956 171.962 122.421C172.331 122.881 172.828 123.111 173.452 123.111C174.081 123.111 174.578 122.879 174.942 122.414C175.307 121.949 175.489 121.27 175.489 120.377C175.489 119.68 175.305 119.121 174.936 118.702C174.571 118.278 174.072 118.066 173.438 118.066ZM184.301 120.384C184.301 121.509 184.043 122.416 183.528 123.104C183.013 123.793 182.316 124.137 181.437 124.137C180.539 124.137 179.832 123.852 179.317 123.282V126.844H178.053V116.604H179.208L179.27 117.424C179.785 116.786 180.5 116.467 181.416 116.467C182.305 116.467 183.007 116.802 183.521 117.472C184.041 118.142 184.301 119.074 184.301 120.268V120.384ZM183.036 120.24C183.036 119.406 182.858 118.748 182.503 118.265C182.147 117.782 181.66 117.54 181.04 117.54C180.274 117.54 179.7 117.88 179.317 118.559V122.093C179.696 122.767 180.274 123.104 181.054 123.104C181.66 123.104 182.141 122.865 182.496 122.387C182.856 121.904 183.036 121.188 183.036 120.24ZM190.48 124C190.408 123.854 190.348 123.594 190.303 123.221C189.715 123.831 189.013 124.137 188.197 124.137C187.468 124.137 186.869 123.932 186.399 123.521C185.935 123.107 185.702 122.583 185.702 121.949C185.702 121.179 185.994 120.582 186.577 120.158C187.165 119.73 187.99 119.516 189.052 119.516H190.282V118.935C190.282 118.493 190.15 118.142 189.886 117.882C189.621 117.618 189.232 117.485 188.717 117.485C188.266 117.485 187.887 117.599 187.582 117.827C187.277 118.055 187.124 118.331 187.124 118.654H185.853C185.853 118.285 185.982 117.93 186.242 117.588C186.507 117.242 186.862 116.968 187.309 116.768C187.76 116.567 188.254 116.467 188.792 116.467C189.644 116.467 190.312 116.681 190.795 117.109C191.278 117.533 191.529 118.119 191.547 118.866V122.271C191.547 122.95 191.633 123.49 191.807 123.891V124H190.48ZM188.382 123.036C188.778 123.036 189.154 122.934 189.51 122.729C189.865 122.523 190.123 122.257 190.282 121.929V120.411H189.291C187.742 120.411 186.967 120.865 186.967 121.771C186.967 122.168 187.099 122.478 187.363 122.701C187.628 122.924 187.967 123.036 188.382 123.036ZM198.916 117.629H196.435V124H195.17V117.629H192.736V116.604H198.916V117.629ZM204.932 116.604H206.196V124H204.932V118.606L201.521 124H200.256V116.604H201.521V122.004L204.932 116.604ZM208.343 124V116.604H211.228C212.212 116.604 212.966 116.777 213.49 117.123C214.019 117.465 214.283 117.968 214.283 118.634C214.283 118.976 214.181 119.285 213.976 119.563C213.771 119.837 213.467 120.047 213.066 120.192C213.513 120.297 213.871 120.502 214.14 120.808C214.413 121.113 214.55 121.478 214.55 121.901C214.55 122.58 214.299 123.1 213.798 123.46C213.301 123.82 212.597 124 211.686 124H208.343ZM209.607 120.753V122.981H211.699C212.228 122.981 212.622 122.883 212.882 122.688C213.146 122.492 213.278 122.216 213.278 121.86C213.278 121.122 212.736 120.753 211.651 120.753H209.607ZM209.607 119.741H211.241C212.426 119.741 213.019 119.395 213.019 118.702C213.019 118.009 212.458 117.652 211.337 117.629H209.607V119.741ZM217.605 116.604V122.968H220.312V116.604H221.577V122.968H224.277V116.604H225.549V124H216.334V116.604H217.605ZM232.33 116.604H233.595V124H232.33V118.606L228.919 124H227.654V116.604H228.919V122.004L232.33 116.604ZM239.884 122.325L242.399 116.604H243.979V124H242.714V118.62L240.321 124H239.446L237.006 118.504V124H235.741V116.604H237.382L239.884 122.325ZM248.982 123.104C249.434 123.104 249.828 122.968 250.165 122.694C250.502 122.421 250.689 122.079 250.726 121.669H251.922C251.899 122.093 251.753 122.496 251.484 122.879C251.215 123.262 250.855 123.567 250.404 123.795C249.958 124.023 249.484 124.137 248.982 124.137C247.975 124.137 247.173 123.802 246.576 123.132C245.984 122.457 245.688 121.537 245.688 120.37V120.158C245.688 119.438 245.82 118.798 246.084 118.237C246.348 117.677 246.727 117.242 247.219 116.932C247.715 116.622 248.301 116.467 248.976 116.467C249.805 116.467 250.493 116.715 251.04 117.212C251.591 117.709 251.885 118.354 251.922 119.146H250.726C250.689 118.668 250.507 118.276 250.179 117.971C249.855 117.661 249.454 117.506 248.976 117.506C248.333 117.506 247.834 117.738 247.479 118.203C247.128 118.663 246.952 119.331 246.952 120.206V120.445C246.952 121.298 247.128 121.954 247.479 122.414C247.829 122.874 248.331 123.104 248.982 123.104ZM258.997 116.604V124H257.726V121.122H255.818L254.075 124H252.708L254.567 120.931C254.093 120.757 253.729 120.491 253.474 120.131C253.223 119.766 253.098 119.342 253.098 118.859C253.098 118.185 253.351 117.643 253.856 117.232C254.362 116.818 255.039 116.608 255.887 116.604H258.997ZM254.369 118.873C254.369 119.233 254.492 119.525 254.738 119.748C254.984 119.967 255.31 120.078 255.716 120.083H257.726V117.629H255.907C255.438 117.629 255.064 117.745 254.786 117.978C254.508 118.205 254.369 118.504 254.369 118.873ZM125.115 140.849H124.192V144H122.921V136.604H124.192V139.734H125.02L127.508 136.604H129.039L126.113 140.158L129.285 144H127.679L125.115 140.849ZM139.888 144H138.623V140.842H135.226V144H133.954V136.604H135.226V139.81H138.623V136.604H139.888V144ZM146.491 144C146.418 143.854 146.359 143.594 146.313 143.221C145.726 143.831 145.024 144.137 144.208 144.137C143.479 144.137 142.88 143.932 142.41 143.521C141.945 143.107 141.713 142.583 141.713 141.949C141.713 141.179 142.005 140.582 142.588 140.158C143.176 139.73 144.001 139.516 145.062 139.516H146.293V138.935C146.293 138.493 146.161 138.142 145.896 137.882C145.632 137.618 145.243 137.485 144.728 137.485C144.276 137.485 143.898 137.599 143.593 137.827C143.287 138.055 143.135 138.331 143.135 138.654H141.863C141.863 138.285 141.993 137.93 142.253 137.588C142.517 137.242 142.873 136.968 143.319 136.768C143.771 136.567 144.265 136.467 144.803 136.467C145.655 136.467 146.323 136.681 146.806 137.109C147.289 137.533 147.539 138.119 147.558 138.866V142.271C147.558 142.95 147.644 143.49 147.817 143.891V144H146.491ZM144.393 143.036C144.789 143.036 145.165 142.934 145.521 142.729C145.876 142.523 146.133 142.257 146.293 141.929V140.411H145.302C143.752 140.411 142.978 140.865 142.978 141.771C142.978 142.168 143.11 142.478 143.374 142.701C143.638 142.924 143.978 143.036 144.393 143.036ZM153.799 142.325L156.314 136.604H157.894V144H156.629V138.62L154.236 144H153.361L150.921 138.504V144H149.656V136.604H151.297L153.799 142.325ZM159.89 145.982L159.172 145.49C159.6 144.893 159.824 144.278 159.842 143.645V142.503H161.079V143.494C161.079 143.954 160.965 144.415 160.737 144.875C160.514 145.335 160.231 145.704 159.89 145.982ZM170.41 142.325L172.926 136.604H174.505V144H173.24V138.62L170.848 144H169.973L167.532 138.504V144H166.268V136.604H167.908L170.41 142.325ZM177.923 139.153H179.844C180.682 139.162 181.345 139.381 181.833 139.81C182.321 140.238 182.564 140.819 182.564 141.553C182.564 142.291 182.314 142.883 181.812 143.33C181.311 143.777 180.637 144 179.789 144H176.658V136.604H177.923V139.153ZM185.203 144H183.932V136.604H185.203V144ZM177.923 140.186V142.968H179.803C180.277 142.968 180.644 142.847 180.903 142.605C181.163 142.359 181.293 142.024 181.293 141.601C181.293 141.19 181.165 140.855 180.91 140.596C180.66 140.331 180.306 140.195 179.851 140.186H177.923ZM196.934 144H195.669V137.649H192.265V144H190.993V136.604H196.934V144ZM198.629 140.233C198.629 139.509 198.77 138.857 199.053 138.278C199.34 137.7 199.736 137.253 200.242 136.938C200.753 136.624 201.334 136.467 201.985 136.467C202.993 136.467 203.806 136.815 204.426 137.513C205.05 138.21 205.362 139.137 205.362 140.295V140.384C205.362 141.104 205.223 141.751 204.945 142.325C204.672 142.895 204.278 143.339 203.763 143.658C203.252 143.977 202.664 144.137 201.999 144.137C200.996 144.137 200.183 143.788 199.559 143.091C198.939 142.394 198.629 141.471 198.629 140.322V140.233ZM199.9 140.384C199.9 141.204 200.09 141.863 200.468 142.359C200.851 142.856 201.361 143.104 201.999 143.104C202.642 143.104 203.152 142.854 203.53 142.353C203.909 141.847 204.098 141.14 204.098 140.233C204.098 139.422 203.904 138.766 203.517 138.265C203.134 137.759 202.623 137.506 201.985 137.506C201.361 137.506 200.857 137.754 200.475 138.251C200.092 138.748 199.9 139.459 199.9 140.384ZM211.207 142.325L213.723 136.604H215.302V144H214.037V138.62L211.645 144H210.77L208.329 138.504V144H207.064V136.604H208.705L211.207 142.325ZM217.004 140.233C217.004 139.509 217.145 138.857 217.428 138.278C217.715 137.7 218.111 137.253 218.617 136.938C219.128 136.624 219.709 136.467 220.36 136.467C221.368 136.467 222.181 136.815 222.801 137.513C223.425 138.21 223.737 139.137 223.737 140.295V140.384C223.737 141.104 223.598 141.751 223.32 142.325C223.047 142.895 222.653 143.339 222.138 143.658C221.627 143.977 221.039 144.137 220.374 144.137C219.371 144.137 218.558 143.788 217.934 143.091C217.314 142.394 217.004 141.471 217.004 140.322V140.233ZM218.275 140.384C218.275 141.204 218.465 141.863 218.843 142.359C219.226 142.856 219.736 143.104 220.374 143.104C221.017 143.104 221.527 142.854 221.905 142.353C222.284 141.847 222.473 141.14 222.473 140.233C222.473 139.422 222.279 138.766 221.892 138.265C221.509 137.759 220.998 137.506 220.36 137.506C219.736 137.506 219.232 137.754 218.85 138.251C218.467 138.748 218.275 139.459 218.275 140.384ZM230.102 137.649H226.69V144H225.419V136.604H230.102V137.649ZM236.992 136.604V144H235.721V137.649H233.205L233.055 140.418C232.973 141.689 232.758 142.599 232.412 143.146C232.07 143.692 231.526 143.977 230.778 144H230.272V142.886L230.635 142.858C231.045 142.813 231.339 142.576 231.517 142.147C231.694 141.719 231.808 140.926 231.858 139.769L231.995 136.604H236.992ZM243.808 136.604H245.072V144H243.808V138.606L240.396 144H239.132V136.604H240.396V142.004L243.808 136.604Z" fill="#706A5E"/>
</svg>
