<svg width="370" height="211" viewBox="0 0 370 211" fill="none" xmlns="http://www.w3.org/2000/svg">
<path d="M146.586 77H111.5V70.0391L128.059 52.3906C130.332 49.9062 132.008 47.7383 133.086 45.8867C134.188 44.0352 134.738 42.2773 134.738 40.6133C134.738 38.3398 134.164 36.5586 133.016 35.2695C131.867 33.957 130.227 33.3008 128.094 33.3008C125.797 33.3008 123.98 34.0977 122.645 35.6914C121.332 37.2617 120.676 39.3359 120.676 41.9141H110.48C110.48 38.7969 111.219 35.9492 112.695 33.3711C114.195 30.793 116.305 28.7773 119.023 27.3242C121.742 25.8477 124.824 25.1094 128.27 25.1094C133.543 25.1094 137.633 26.375 140.539 28.9062C143.469 31.4375 144.934 35.0117 144.934 39.6289C144.934 42.1602 144.277 44.7383 142.965 47.3633C141.652 49.9883 139.402 53.0469 136.215 56.5391L124.578 68.8086H146.586V77ZM182.902 57.7344H188.703V65.9258H182.902V77H172.742V65.9258H151.754L151.297 59.5273L172.637 25.8125H182.902V57.7344ZM161.422 57.7344H172.742V39.6641L172.074 40.8242L161.422 57.7344ZM197.809 81.3945H190.25L209.094 25.8125H216.652L197.809 81.3945ZM255.922 31.5078L236.129 77H225.406L245.234 34.0391H219.781V25.8125H255.922V31.5078Z" fill="#FFBE3B"/>
<path d="M99.5 51.5H48V192H319V51.5H269" stroke="#B7C136"/>
<path d="M100.109 122.325L102.625 116.604H104.204V124H102.939V118.62L100.547 124H99.6719L97.2314 118.504V124H95.9668V116.604H97.6074L100.109 122.325ZM107.622 119.153H109.543C110.382 119.162 111.045 119.381 111.532 119.81C112.02 120.238 112.264 120.819 112.264 121.553C112.264 122.291 112.013 122.883 111.512 123.33C111.01 123.777 110.336 124 109.488 124H106.357V116.604H107.622V119.153ZM114.902 124H113.631V116.604H114.902V124ZM107.622 120.186V122.968H109.502C109.976 122.968 110.343 122.847 110.603 122.605C110.862 122.359 110.992 122.024 110.992 121.601C110.992 121.19 110.865 120.855 110.609 120.596C110.359 120.331 110.006 120.195 109.55 120.186H107.622ZM126.633 124H125.368V117.649H121.964V124H120.692V116.604H126.633V124ZM134.911 120.384C134.911 121.509 134.654 122.416 134.139 123.104C133.624 123.793 132.926 124.137 132.047 124.137C131.149 124.137 130.443 123.852 129.928 123.282V126.844H128.663V116.604H129.818L129.88 117.424C130.395 116.786 131.11 116.467 132.026 116.467C132.915 116.467 133.617 116.802 134.132 117.472C134.651 118.142 134.911 119.074 134.911 120.268V120.384ZM133.646 120.24C133.646 119.406 133.469 118.748 133.113 118.265C132.758 117.782 132.27 117.54 131.65 117.54C130.885 117.54 130.311 117.88 129.928 118.559V122.093C130.306 122.767 130.885 123.104 131.664 123.104C132.27 123.104 132.751 122.865 133.106 122.387C133.466 121.904 133.646 121.188 133.646 120.24ZM141.31 116.604H142.574V124H141.31V118.606L137.898 124H136.634V116.604H137.898V122.004L141.31 116.604ZM150.647 124H149.383V120.842H145.985V124H144.714V116.604H145.985V119.81H149.383V116.604H150.647V124ZM157.47 116.604H158.734V124H157.47V118.606L154.059 124H152.794V116.604H154.059V122.004L157.47 116.604ZM165.023 122.325L167.539 116.604H169.118V124H167.854V118.62L165.461 124H164.586L162.146 118.504V124H160.881V116.604H162.521L165.023 122.325ZM175.722 124C175.649 123.854 175.59 123.594 175.544 123.221C174.956 123.831 174.254 124.137 173.438 124.137C172.709 124.137 172.11 123.932 171.641 123.521C171.176 123.107 170.943 122.583 170.943 121.949C170.943 121.179 171.235 120.582 171.818 120.158C172.406 119.73 173.231 119.516 174.293 119.516H175.523V118.935C175.523 118.493 175.391 118.142 175.127 117.882C174.863 117.618 174.473 117.485 173.958 117.485C173.507 117.485 173.129 117.599 172.823 117.827C172.518 118.055 172.365 118.331 172.365 118.654H171.094C171.094 118.285 171.224 117.93 171.483 117.588C171.748 117.242 172.103 116.968 172.55 116.768C173.001 116.567 173.495 116.467 174.033 116.467C174.885 116.467 175.553 116.681 176.036 117.109C176.519 117.533 176.77 118.119 176.788 118.866V122.271C176.788 122.95 176.875 123.49 177.048 123.891V124H175.722ZM173.623 123.036C174.02 123.036 174.396 122.934 174.751 122.729C175.106 122.523 175.364 122.257 175.523 121.929V120.411H174.532C172.983 120.411 172.208 120.865 172.208 121.771C172.208 122.168 172.34 122.478 172.604 122.701C172.869 122.924 173.208 123.036 173.623 123.036ZM181.84 124.137C180.837 124.137 180.021 123.809 179.393 123.152C178.764 122.492 178.449 121.61 178.449 120.507V120.274C178.449 119.541 178.588 118.887 178.866 118.312C179.149 117.734 179.541 117.283 180.042 116.959C180.548 116.631 181.095 116.467 181.683 116.467C182.644 116.467 183.392 116.784 183.925 117.417C184.458 118.05 184.725 118.957 184.725 120.138V120.664H179.714C179.732 121.393 179.944 121.983 180.35 122.435C180.76 122.881 181.279 123.104 181.908 123.104C182.355 123.104 182.733 123.013 183.043 122.831C183.353 122.649 183.624 122.407 183.856 122.106L184.629 122.708C184.009 123.66 183.079 124.137 181.84 124.137ZM181.683 117.506C181.172 117.506 180.744 117.693 180.397 118.066C180.051 118.436 179.837 118.955 179.755 119.625H183.46V119.529C183.424 118.887 183.25 118.39 182.94 118.039C182.631 117.684 182.211 117.506 181.683 117.506ZM190.453 122.325L192.969 116.604H194.548V124H193.283V118.62L190.891 124H190.016L187.575 118.504V124H186.311V116.604H187.951L190.453 122.325ZM199.723 120.233C199.723 119.509 199.864 118.857 200.146 118.278C200.434 117.7 200.83 117.253 201.336 116.938C201.846 116.624 202.427 116.467 203.079 116.467C204.086 116.467 204.9 116.815 205.52 117.513C206.144 118.21 206.456 119.137 206.456 120.295V120.384C206.456 121.104 206.317 121.751 206.039 122.325C205.766 122.895 205.371 123.339 204.856 123.658C204.346 123.977 203.758 124.137 203.093 124.137C202.09 124.137 201.277 123.788 200.652 123.091C200.033 122.394 199.723 121.471 199.723 120.322V120.233ZM200.994 120.384C200.994 121.204 201.183 121.863 201.562 122.359C201.944 122.856 202.455 123.104 203.093 123.104C203.735 123.104 204.246 122.854 204.624 122.353C205.002 121.847 205.191 121.14 205.191 120.233C205.191 119.422 204.998 118.766 204.61 118.265C204.228 117.759 203.717 117.506 203.079 117.506C202.455 117.506 201.951 117.754 201.568 118.251C201.186 118.748 200.994 119.459 200.994 120.384ZM211.289 117.027C212.219 117.027 212.962 117.34 213.518 117.964C214.078 118.584 214.358 119.402 214.358 120.418V120.534C214.358 121.231 214.224 121.856 213.955 122.407C213.686 122.954 213.299 123.38 212.793 123.686C212.292 123.986 211.713 124.137 211.057 124.137C210.063 124.137 209.263 123.806 208.657 123.146C208.051 122.48 207.748 121.589 207.748 120.473V119.857C207.748 118.303 208.035 117.068 208.609 116.152C209.188 115.236 210.04 114.678 211.166 114.478C211.804 114.364 212.235 114.225 212.458 114.061C212.681 113.896 212.793 113.671 212.793 113.384H213.832C213.832 113.953 213.702 114.398 213.442 114.717C213.187 115.036 212.777 115.261 212.212 115.394L211.269 115.605C210.517 115.783 209.951 116.084 209.573 116.508C209.2 116.927 208.956 117.488 208.842 118.189C209.512 117.415 210.327 117.027 211.289 117.027ZM211.043 118.066C210.423 118.066 209.931 118.276 209.566 118.695C209.202 119.11 209.02 119.687 209.02 120.425V120.534C209.02 121.327 209.202 121.956 209.566 122.421C209.936 122.881 210.432 123.111 211.057 123.111C211.686 123.111 212.182 122.879 212.547 122.414C212.911 121.949 213.094 121.27 213.094 120.377C213.094 119.68 212.909 119.121 212.54 118.702C212.175 118.278 211.676 118.066 211.043 118.066ZM221.905 120.384C221.905 121.509 221.648 122.416 221.133 123.104C220.618 123.793 219.921 124.137 219.041 124.137C218.143 124.137 217.437 123.852 216.922 123.282V126.844H215.657V116.604H216.812L216.874 117.424C217.389 116.786 218.104 116.467 219.021 116.467C219.909 116.467 220.611 116.802 221.126 117.472C221.646 118.142 221.905 119.074 221.905 120.268V120.384ZM220.641 120.24C220.641 119.406 220.463 118.748 220.107 118.265C219.752 117.782 219.264 117.54 218.645 117.54C217.879 117.54 217.305 117.88 216.922 118.559V122.093C217.3 122.767 217.879 123.104 218.658 123.104C219.264 123.104 219.745 122.865 220.101 122.387C220.461 121.904 220.641 121.188 220.641 120.24ZM228.085 124C228.012 123.854 227.953 123.594 227.907 123.221C227.319 123.831 226.618 124.137 225.802 124.137C225.073 124.137 224.473 123.932 224.004 123.521C223.539 123.107 223.307 122.583 223.307 121.949C223.307 121.179 223.598 120.582 224.182 120.158C224.77 119.73 225.594 119.516 226.656 119.516H227.887V118.935C227.887 118.493 227.755 118.142 227.49 117.882C227.226 117.618 226.836 117.485 226.321 117.485C225.87 117.485 225.492 117.599 225.187 117.827C224.881 118.055 224.729 118.331 224.729 118.654H223.457C223.457 118.285 223.587 117.93 223.847 117.588C224.111 117.242 224.466 116.968 224.913 116.768C225.364 116.567 225.859 116.467 226.396 116.467C227.249 116.467 227.916 116.681 228.399 117.109C228.882 117.533 229.133 118.119 229.151 118.866V122.271C229.151 122.95 229.238 123.49 229.411 123.891V124H228.085ZM225.986 123.036C226.383 123.036 226.759 122.934 227.114 122.729C227.47 122.523 227.727 122.257 227.887 121.929V120.411H226.896C225.346 120.411 224.571 120.865 224.571 121.771C224.571 122.168 224.703 122.478 224.968 122.701C225.232 122.924 225.572 123.036 225.986 123.036ZM232.439 116.604V122.968H235.146V116.604H236.411V122.968H239.111V116.604H240.383V122.968H241.422L241.299 126.194H240.164V124H231.168V116.604H232.439ZM245.865 124.137C244.863 124.137 244.047 123.809 243.418 123.152C242.789 122.492 242.475 121.61 242.475 120.507V120.274C242.475 119.541 242.614 118.887 242.892 118.312C243.174 117.734 243.566 117.283 244.067 116.959C244.573 116.631 245.12 116.467 245.708 116.467C246.67 116.467 247.417 116.784 247.95 117.417C248.483 118.05 248.75 118.957 248.75 120.138V120.664H243.739C243.757 121.393 243.969 121.983 244.375 122.435C244.785 122.881 245.305 123.104 245.934 123.104C246.38 123.104 246.758 123.013 247.068 122.831C247.378 122.649 247.649 122.407 247.882 122.106L248.654 122.708C248.035 123.66 247.105 124.137 245.865 124.137ZM245.708 117.506C245.198 117.506 244.769 117.693 244.423 118.066C244.076 118.436 243.862 118.955 243.78 119.625H247.485V119.529C247.449 118.887 247.276 118.39 246.966 118.039C246.656 117.684 246.237 117.506 245.708 117.506ZM256.263 124H254.998V120.842H251.601V124H250.329V116.604H251.601V119.81H254.998V116.604H256.263V124ZM263.085 116.604H264.35V124H263.085V118.606L259.674 124H258.409V116.604H259.674V122.004L263.085 116.604ZM272.033 116.604V124H270.762V121.122H268.854L267.111 124H265.744L267.604 120.931C267.13 120.757 266.765 120.491 266.51 120.131C266.259 119.766 266.134 119.342 266.134 118.859C266.134 118.185 266.387 117.643 266.893 117.232C267.398 116.818 268.075 116.608 268.923 116.604H272.033ZM267.405 118.873C267.405 119.233 267.528 119.525 267.774 119.748C268.021 119.967 268.346 120.078 268.752 120.083H270.762V117.629H268.943C268.474 117.629 268.1 117.745 267.822 117.978C267.544 118.205 267.405 118.504 267.405 118.873ZM151.304 144.137C150.301 144.137 149.485 143.809 148.856 143.152C148.228 142.492 147.913 141.61 147.913 140.507V140.274C147.913 139.541 148.052 138.887 148.33 138.312C148.613 137.734 149.005 137.283 149.506 136.959C150.012 136.631 150.559 136.467 151.146 136.467C152.108 136.467 152.855 136.784 153.389 137.417C153.922 138.05 154.188 138.957 154.188 140.138V140.664H149.178C149.196 141.393 149.408 141.983 149.813 142.435C150.224 142.881 150.743 143.104 151.372 143.104C151.819 143.104 152.197 143.013 152.507 142.831C152.817 142.649 153.088 142.407 153.32 142.106L154.093 142.708C153.473 143.66 152.543 144.137 151.304 144.137ZM151.146 137.506C150.636 137.506 150.208 137.693 149.861 138.066C149.515 138.436 149.301 138.955 149.219 139.625H152.924V139.529C152.887 138.887 152.714 138.39 152.404 138.039C152.094 137.684 151.675 137.506 151.146 137.506ZM161.558 140.787H160.669V144H159.404V140.787H158.516L156.444 144H154.845L157.49 140.172L155.098 136.604H156.629L158.536 139.666H159.404V136.604H160.669V139.666H161.53L163.451 136.604H164.982L162.583 140.179L165.229 144H163.629L161.558 140.787ZM169.31 144.137C168.307 144.137 167.491 143.809 166.862 143.152C166.233 142.492 165.919 141.61 165.919 140.507V140.274C165.919 139.541 166.058 138.887 166.336 138.312C166.618 137.734 167.01 137.283 167.512 136.959C168.018 136.631 168.564 136.467 169.152 136.467C170.114 136.467 170.861 136.784 171.395 137.417C171.928 138.05 172.194 138.957 172.194 140.138V140.664H167.184C167.202 141.393 167.414 141.983 167.819 142.435C168.229 142.881 168.749 143.104 169.378 143.104C169.825 143.104 170.203 143.013 170.513 142.831C170.823 142.649 171.094 142.407 171.326 142.106L172.099 142.708C171.479 143.66 170.549 144.137 169.31 144.137ZM169.152 137.506C168.642 137.506 168.214 137.693 167.867 138.066C167.521 138.436 167.307 138.955 167.225 139.625H170.93V139.529C170.893 138.887 170.72 138.39 170.41 138.039C170.1 137.684 169.681 137.506 169.152 137.506ZM173.603 142.968L174.04 142.428C174.532 141.79 174.812 140.833 174.881 139.557L174.997 136.604H179.762V142.968H180.712V146.174H179.447V144H174.286V146.174H173.021L173.028 142.968H173.603ZM175.1 142.968H178.497V137.772H176.221L176.146 139.536C176.068 141.008 175.719 142.152 175.1 142.968ZM188.156 144H186.892V140.842H183.494V144H182.223V136.604H183.494V139.81H186.892V136.604H188.156V144ZM193.263 144.137C192.26 144.137 191.444 143.809 190.815 143.152C190.187 142.492 189.872 141.61 189.872 140.507V140.274C189.872 139.541 190.011 138.887 190.289 138.312C190.572 137.734 190.964 137.283 191.465 136.959C191.971 136.631 192.518 136.467 193.105 136.467C194.067 136.467 194.814 136.784 195.348 137.417C195.881 138.05 196.147 138.957 196.147 140.138V140.664H191.137C191.155 141.393 191.367 141.983 191.772 142.435C192.183 142.881 192.702 143.104 193.331 143.104C193.778 143.104 194.156 143.013 194.466 142.831C194.776 142.649 195.047 142.407 195.279 142.106L196.052 142.708C195.432 143.66 194.502 144.137 193.263 144.137ZM193.105 137.506C192.595 137.506 192.167 137.693 191.82 138.066C191.474 138.436 191.26 138.955 191.178 139.625H194.883V139.529C194.846 138.887 194.673 138.39 194.363 138.039C194.053 137.684 193.634 137.506 193.105 137.506ZM197.733 144V136.604H200.618C201.603 136.604 202.357 136.777 202.881 137.123C203.41 137.465 203.674 137.968 203.674 138.634C203.674 138.976 203.571 139.285 203.366 139.563C203.161 139.837 202.858 140.047 202.457 140.192C202.904 140.297 203.261 140.502 203.53 140.808C203.804 141.113 203.94 141.478 203.94 141.901C203.94 142.58 203.69 143.1 203.188 143.46C202.692 143.82 201.988 144 201.076 144H197.733ZM198.998 140.753V142.981H201.09C201.618 142.981 202.013 142.883 202.272 142.688C202.537 142.492 202.669 142.216 202.669 141.86C202.669 141.122 202.127 140.753 201.042 140.753H198.998ZM198.998 139.741H200.632C201.817 139.741 202.409 139.395 202.409 138.702C202.409 138.009 201.849 137.652 200.728 137.629H198.998V139.741ZM211.658 144H210.394V140.842H206.996V144H205.725V136.604H206.996V139.81H210.394V136.604H211.658V144ZM213.36 140.233C213.36 139.509 213.502 138.857 213.784 138.278C214.071 137.7 214.468 137.253 214.974 136.938C215.484 136.624 216.065 136.467 216.717 136.467C217.724 136.467 218.537 136.815 219.157 137.513C219.782 138.21 220.094 139.137 220.094 140.295V140.384C220.094 141.104 219.955 141.751 219.677 142.325C219.403 142.895 219.009 143.339 218.494 143.658C217.984 143.977 217.396 144.137 216.73 144.137C215.728 144.137 214.914 143.788 214.29 143.091C213.67 142.394 213.36 141.471 213.36 140.322V140.233ZM214.632 140.384C214.632 141.204 214.821 141.863 215.199 142.359C215.582 142.856 216.092 143.104 216.73 143.104C217.373 143.104 217.883 142.854 218.262 142.353C218.64 141.847 218.829 141.14 218.829 140.233C218.829 139.422 218.635 138.766 218.248 138.265C217.865 137.759 217.355 137.506 216.717 137.506C216.092 137.506 215.589 137.754 215.206 138.251C214.823 138.748 214.632 139.459 214.632 140.384Z" fill="#706A5E"/>
</svg>
