<svg width="370" height="211" viewBox="0 0 370 211" fill="none" xmlns="http://www.w3.org/2000/svg">
<path d="M149.68 25.707V77H139.555V37.3789L127.391 41.2461V33.2656L148.59 25.707H149.68ZM200.797 46.9062V55.7656C200.797 59.6094 200.387 62.9258 199.566 65.7148C198.746 68.4805 197.562 70.7539 196.016 72.5352C194.492 74.293 192.676 75.5938 190.566 76.4375C188.457 77.2812 186.113 77.7031 183.535 77.7031C181.473 77.7031 179.551 77.4453 177.77 76.9297C175.988 76.3906 174.383 75.5586 172.953 74.4336C171.547 73.3086 170.328 71.8906 169.297 70.1797C168.289 68.4453 167.516 66.3828 166.977 63.9922C166.438 61.6016 166.168 58.8594 166.168 55.7656V46.9062C166.168 43.0625 166.578 39.7695 167.398 37.0273C168.242 34.2617 169.426 32 170.949 30.2422C172.496 28.4844 174.324 27.1953 176.434 26.375C178.543 25.5312 180.887 25.1094 183.465 25.1094C185.527 25.1094 187.438 25.3789 189.195 25.918C190.977 26.4336 192.582 27.2422 194.012 28.3438C195.441 29.4453 196.66 30.8633 197.668 32.5977C198.676 34.3086 199.449 36.3594 199.988 38.75C200.527 41.1172 200.797 43.8359 200.797 46.9062ZM190.637 57.1016V45.5352C190.637 43.6836 190.531 42.0664 190.32 40.6836C190.133 39.3008 189.84 38.1289 189.441 37.168C189.043 36.1836 188.551 35.3867 187.965 34.7773C187.379 34.168 186.711 33.7227 185.961 33.4414C185.211 33.1602 184.379 33.0195 183.465 33.0195C182.316 33.0195 181.297 33.2422 180.406 33.6875C179.539 34.1328 178.801 34.8477 178.191 35.832C177.582 36.793 177.113 38.082 176.785 39.6992C176.48 41.293 176.328 43.2383 176.328 45.5352V57.1016C176.328 58.9531 176.422 60.582 176.609 61.9883C176.82 63.3945 177.125 64.6016 177.523 65.6094C177.945 66.5938 178.438 67.4023 179 68.0352C179.586 68.6445 180.254 69.0898 181.004 69.3711C181.777 69.6523 182.621 69.793 183.535 69.793C184.66 69.793 185.656 69.5703 186.523 69.125C187.414 68.6562 188.164 67.9297 188.773 66.9453C189.406 65.9375 189.875 64.625 190.18 63.0078C190.484 61.3906 190.637 59.4219 190.637 57.1016ZM242.141 46.9062V55.7656C242.141 59.6094 241.73 62.9258 240.91 65.7148C240.09 68.4805 238.906 70.7539 237.359 72.5352C235.836 74.293 234.02 75.5938 231.91 76.4375C229.801 77.2812 227.457 77.7031 224.879 77.7031C222.816 77.7031 220.895 77.4453 219.113 76.9297C217.332 76.3906 215.727 75.5586 214.297 74.4336C212.891 73.3086 211.672 71.8906 210.641 70.1797C209.633 68.4453 208.859 66.3828 208.32 63.9922C207.781 61.6016 207.512 58.8594 207.512 55.7656V46.9062C207.512 43.0625 207.922 39.7695 208.742 37.0273C209.586 34.2617 210.77 32 212.293 30.2422C213.84 28.4844 215.668 27.1953 217.777 26.375C219.887 25.5312 222.23 25.1094 224.809 25.1094C226.871 25.1094 228.781 25.3789 230.539 25.918C232.32 26.4336 233.926 27.2422 235.355 28.3438C236.785 29.4453 238.004 30.8633 239.012 32.5977C240.02 34.3086 240.793 36.3594 241.332 38.75C241.871 41.1172 242.141 43.8359 242.141 46.9062ZM231.98 57.1016V45.5352C231.98 43.6836 231.875 42.0664 231.664 40.6836C231.477 39.3008 231.184 38.1289 230.785 37.168C230.387 36.1836 229.895 35.3867 229.309 34.7773C228.723 34.168 228.055 33.7227 227.305 33.4414C226.555 33.1602 225.723 33.0195 224.809 33.0195C223.66 33.0195 222.641 33.2422 221.75 33.6875C220.883 34.1328 220.145 34.8477 219.535 35.832C218.926 36.793 218.457 38.082 218.129 39.6992C217.824 41.293 217.672 43.2383 217.672 45.5352V57.1016C217.672 58.9531 217.766 60.582 217.953 61.9883C218.164 63.3945 218.469 64.6016 218.867 65.6094C219.289 66.5938 219.781 67.4023 220.344 68.0352C220.93 68.6445 221.598 69.0898 222.348 69.3711C223.121 69.6523 223.965 69.793 224.879 69.793C226.004 69.793 227 69.5703 227.867 69.125C228.758 68.6562 229.508 67.9297 230.117 66.9453C230.75 65.9375 231.219 64.625 231.523 63.0078C231.828 61.3906 231.98 59.4219 231.98 57.1016Z" fill="#D35F8E"/>
<path d="M99.5 51.5H48V192H319V51.5H269" stroke="#B7C136"/>
<path d="M116.618 116.604V124H115.354V116.604H116.618ZM121.472 116.604L117.965 120.842H116.194L116.003 119.734H117.452L119.934 116.604H121.472ZM120.111 124L117.391 120.65L118.204 119.734L121.718 124H120.111ZM126.291 120.746H123.864L123.851 119.734H125.833C126.225 119.734 126.551 119.696 126.811 119.618C127.075 119.541 127.273 119.424 127.405 119.27C127.537 119.115 127.604 118.923 127.604 118.695C127.604 118.518 127.565 118.363 127.487 118.23C127.414 118.094 127.303 117.982 127.152 117.896C127.002 117.804 126.815 117.738 126.592 117.697C126.373 117.652 126.116 117.629 125.819 117.629H124.199V124H122.935V116.604H125.819C126.289 116.604 126.71 116.645 127.084 116.727C127.462 116.809 127.784 116.934 128.048 117.103C128.317 117.267 128.522 117.476 128.663 117.731C128.804 117.987 128.875 118.287 128.875 118.634C128.875 118.857 128.829 119.069 128.738 119.27C128.647 119.47 128.513 119.648 128.335 119.803C128.157 119.958 127.938 120.085 127.679 120.186C127.419 120.281 127.12 120.343 126.783 120.37L126.291 120.746ZM126.291 124H123.406L124.035 122.975H126.291C126.642 122.975 126.934 122.931 127.166 122.845C127.398 122.754 127.572 122.626 127.686 122.462C127.804 122.293 127.863 122.093 127.863 121.86C127.863 121.628 127.804 121.43 127.686 121.266C127.572 121.097 127.398 120.969 127.166 120.883C126.934 120.792 126.642 120.746 126.291 120.746H124.37L124.384 119.734H126.783L127.241 120.117C127.647 120.149 127.991 120.249 128.273 120.418C128.556 120.587 128.77 120.801 128.916 121.061C129.062 121.316 129.135 121.594 129.135 121.895C129.135 122.241 129.069 122.546 128.937 122.811C128.809 123.075 128.622 123.296 128.376 123.474C128.13 123.647 127.831 123.779 127.48 123.87C127.13 123.957 126.733 124 126.291 124ZM135.191 122.735V118.928C135.191 118.636 135.132 118.383 135.014 118.169C134.9 117.95 134.727 117.782 134.494 117.663C134.262 117.545 133.975 117.485 133.633 117.485C133.314 117.485 133.034 117.54 132.792 117.649C132.555 117.759 132.368 117.902 132.231 118.08C132.099 118.258 132.033 118.449 132.033 118.654H130.769C130.769 118.39 130.837 118.128 130.974 117.868C131.11 117.608 131.306 117.374 131.562 117.164C131.821 116.95 132.131 116.781 132.491 116.658C132.856 116.531 133.261 116.467 133.708 116.467C134.246 116.467 134.72 116.558 135.13 116.74C135.545 116.923 135.868 117.198 136.101 117.567C136.338 117.932 136.456 118.39 136.456 118.941V122.387C136.456 122.633 136.477 122.895 136.518 123.173C136.563 123.451 136.629 123.69 136.716 123.891V124H135.396C135.333 123.854 135.283 123.66 135.246 123.419C135.21 123.173 135.191 122.945 135.191 122.735ZM135.41 119.516L135.424 120.404H134.146C133.785 120.404 133.464 120.434 133.182 120.493C132.899 120.548 132.662 120.632 132.471 120.746C132.279 120.86 132.133 121.004 132.033 121.177C131.933 121.345 131.883 121.544 131.883 121.771C131.883 122.004 131.935 122.216 132.04 122.407C132.145 122.599 132.302 122.751 132.512 122.865C132.726 122.975 132.988 123.029 133.298 123.029C133.685 123.029 134.027 122.947 134.323 122.783C134.619 122.619 134.854 122.419 135.027 122.182C135.205 121.945 135.301 121.715 135.314 121.491L135.854 122.1C135.823 122.291 135.736 122.503 135.595 122.735C135.453 122.968 135.264 123.191 135.027 123.405C134.795 123.615 134.517 123.79 134.193 123.932C133.874 124.068 133.514 124.137 133.113 124.137C132.612 124.137 132.172 124.039 131.794 123.843C131.42 123.647 131.129 123.385 130.919 123.057C130.714 122.724 130.611 122.353 130.611 121.942C130.611 121.546 130.689 121.197 130.844 120.896C130.999 120.591 131.222 120.338 131.514 120.138C131.805 119.933 132.156 119.778 132.566 119.673C132.977 119.568 133.435 119.516 133.94 119.516H135.41ZM143.388 116.604V117.649H139.812V116.604H143.388ZM144.502 116.604V124H143.237V116.604H144.502ZM139.505 116.604H140.776L140.585 120.172C140.553 120.723 140.501 121.211 140.428 121.635C140.359 122.054 140.264 122.414 140.141 122.715C140.022 123.016 139.872 123.262 139.689 123.453C139.512 123.64 139.298 123.779 139.047 123.87C138.796 123.957 138.507 124 138.179 124H137.782V122.886L138.056 122.865C138.252 122.852 138.418 122.806 138.555 122.729C138.696 122.651 138.814 122.537 138.91 122.387C139.006 122.232 139.083 122.034 139.143 121.792C139.206 121.55 139.254 121.263 139.286 120.931C139.323 120.598 139.35 120.211 139.368 119.769L139.505 116.604ZM147.906 121.997L151.317 116.604H152.589V124H151.317V118.606L147.906 124H146.648V116.604H147.906V121.997ZM163.123 120.432V120.575C163.123 121.095 163.066 121.573 162.952 122.011C162.838 122.444 162.667 122.82 162.439 123.139C162.216 123.458 161.938 123.706 161.605 123.884C161.273 124.057 160.888 124.144 160.45 124.144C160.09 124.144 159.773 124.096 159.5 124C159.227 123.9 158.994 123.756 158.803 123.569C158.616 123.382 158.465 123.159 158.352 122.899C158.242 122.635 158.167 122.339 158.126 122.011V118.729C158.167 118.379 158.242 118.064 158.352 117.786C158.465 117.508 158.616 117.271 158.803 117.075C158.994 116.879 159.224 116.729 159.493 116.624C159.762 116.519 160.076 116.467 160.437 116.467C160.792 116.467 161.111 116.531 161.394 116.658C161.681 116.781 161.931 116.959 162.146 117.191C162.364 117.424 162.544 117.704 162.686 118.032C162.831 118.356 162.941 118.72 163.014 119.126C163.087 119.532 163.123 119.967 163.123 120.432ZM161.858 120.575V120.432C161.858 120.113 161.836 119.81 161.79 119.522C161.749 119.231 161.683 118.964 161.592 118.723C161.505 118.477 161.391 118.262 161.25 118.08C161.109 117.898 160.938 117.757 160.737 117.656C160.541 117.556 160.316 117.506 160.061 117.506C159.787 117.506 159.559 117.54 159.377 117.608C159.199 117.677 159.06 117.768 158.96 117.882C158.86 117.991 158.787 118.107 158.741 118.23V122.517C158.796 122.617 158.876 122.713 158.98 122.804C159.085 122.89 159.227 122.963 159.404 123.022C159.582 123.077 159.805 123.104 160.074 123.104C160.393 123.104 160.664 123.041 160.888 122.913C161.116 122.781 161.3 122.599 161.441 122.366C161.587 122.134 161.692 121.865 161.756 121.56C161.824 121.254 161.858 120.926 161.858 120.575ZM154.339 120.575V120.432C154.339 119.967 154.375 119.532 154.448 119.126C154.521 118.72 154.631 118.356 154.776 118.032C154.922 117.704 155.102 117.424 155.316 117.191C155.535 116.959 155.786 116.781 156.068 116.658C156.355 116.531 156.677 116.467 157.032 116.467C157.383 116.467 157.688 116.519 157.948 116.624C158.213 116.729 158.436 116.879 158.618 117.075C158.8 117.271 158.946 117.508 159.056 117.786C159.165 118.064 159.243 118.379 159.288 118.729V121.881C159.247 122.227 159.172 122.539 159.062 122.817C158.953 123.095 158.807 123.335 158.625 123.535C158.443 123.731 158.217 123.882 157.948 123.986C157.684 124.091 157.374 124.144 157.019 124.144C156.581 124.144 156.196 124.057 155.863 123.884C155.531 123.706 155.25 123.458 155.022 123.139C154.799 122.82 154.628 122.444 154.51 122.011C154.396 121.573 154.339 121.095 154.339 120.575ZM155.61 120.432V120.575C155.61 120.926 155.64 121.254 155.699 121.56C155.763 121.865 155.861 122.134 155.993 122.366C156.13 122.599 156.308 122.781 156.526 122.913C156.745 123.041 157.014 123.104 157.333 123.104C157.606 123.104 157.832 123.07 158.01 123.002C158.188 122.934 158.329 122.845 158.434 122.735C158.538 122.626 158.618 122.512 158.673 122.394V118.23C158.627 118.107 158.552 117.991 158.447 117.882C158.347 117.768 158.208 117.677 158.03 117.608C157.853 117.54 157.625 117.506 157.347 117.506C157.028 117.506 156.757 117.583 156.533 117.738C156.31 117.893 156.13 118.105 155.993 118.374C155.861 118.643 155.763 118.955 155.699 119.311C155.64 119.661 155.61 120.035 155.61 120.432ZM158.044 126.844V113.5H159.315V126.844H158.044ZM166.145 121.997L169.556 116.604H170.827V124H169.556V118.606L166.145 124H164.887V116.604H166.145V121.997ZM172.967 124V116.604H174.231V122.961H177.636V116.604H178.907V124H172.967ZM179.782 122.961L179.659 126.194H178.531V124H177.567V122.961H179.782ZM182.523 121.997L185.935 116.604H187.206V124H185.935V118.606L182.523 124H181.266V116.604H182.523V121.997ZM190.501 118.025V126.844H189.229V116.604H190.392L190.501 118.025ZM195.484 120.24V120.384C195.484 120.922 195.421 121.421 195.293 121.881C195.165 122.337 194.979 122.733 194.732 123.07C194.491 123.408 194.192 123.67 193.837 123.856C193.481 124.043 193.074 124.137 192.613 124.137C192.144 124.137 191.729 124.059 191.369 123.904C191.009 123.749 190.704 123.524 190.453 123.228C190.202 122.931 190.002 122.576 189.852 122.161C189.706 121.746 189.605 121.279 189.551 120.76V119.994C189.605 119.447 189.708 118.957 189.858 118.524C190.009 118.091 190.207 117.722 190.453 117.417C190.704 117.107 191.007 116.872 191.362 116.713C191.718 116.549 192.128 116.467 192.593 116.467C193.058 116.467 193.47 116.558 193.83 116.74C194.19 116.918 194.493 117.173 194.739 117.506C194.985 117.839 195.17 118.237 195.293 118.702C195.421 119.162 195.484 119.675 195.484 120.24ZM194.213 120.384V120.24C194.213 119.871 194.174 119.525 194.097 119.201C194.019 118.873 193.898 118.586 193.734 118.34C193.575 118.089 193.37 117.893 193.119 117.752C192.868 117.606 192.57 117.533 192.224 117.533C191.905 117.533 191.627 117.588 191.39 117.697C191.157 117.807 190.959 117.955 190.795 118.142C190.631 118.324 190.496 118.534 190.392 118.771C190.291 119.003 190.216 119.244 190.166 119.495V121.266C190.257 121.585 190.385 121.885 190.549 122.168C190.713 122.446 190.932 122.672 191.205 122.845C191.479 123.013 191.823 123.098 192.237 123.098C192.579 123.098 192.873 123.027 193.119 122.886C193.37 122.74 193.575 122.542 193.734 122.291C193.898 122.04 194.019 121.753 194.097 121.43C194.174 121.102 194.213 120.753 194.213 120.384ZM196.763 120.384V120.227C196.763 119.693 196.84 119.199 196.995 118.743C197.15 118.283 197.373 117.884 197.665 117.547C197.957 117.205 198.31 116.941 198.725 116.754C199.139 116.562 199.604 116.467 200.119 116.467C200.639 116.467 201.106 116.562 201.521 116.754C201.94 116.941 202.295 117.205 202.587 117.547C202.883 117.884 203.109 118.283 203.264 118.743C203.419 119.199 203.496 119.693 203.496 120.227V120.384C203.496 120.917 203.419 121.411 203.264 121.867C203.109 122.323 202.883 122.722 202.587 123.063C202.295 123.401 201.942 123.665 201.527 123.856C201.117 124.043 200.652 124.137 200.133 124.137C199.613 124.137 199.146 124.043 198.731 123.856C198.317 123.665 197.961 123.401 197.665 123.063C197.373 122.722 197.15 122.323 196.995 121.867C196.84 121.411 196.763 120.917 196.763 120.384ZM198.027 120.227V120.384C198.027 120.753 198.071 121.102 198.157 121.43C198.244 121.753 198.374 122.04 198.547 122.291C198.725 122.542 198.946 122.74 199.21 122.886C199.474 123.027 199.782 123.098 200.133 123.098C200.479 123.098 200.782 123.027 201.042 122.886C201.306 122.74 201.525 122.542 201.698 122.291C201.871 122.04 202.001 121.753 202.088 121.43C202.179 121.102 202.225 120.753 202.225 120.384V120.227C202.225 119.862 202.179 119.518 202.088 119.194C202.001 118.866 201.869 118.577 201.691 118.326C201.518 118.071 201.299 117.87 201.035 117.725C200.775 117.579 200.47 117.506 200.119 117.506C199.773 117.506 199.467 117.579 199.203 117.725C198.943 117.87 198.725 118.071 198.547 118.326C198.374 118.577 198.244 118.866 198.157 119.194C198.071 119.518 198.027 119.862 198.027 120.227ZM208.555 120.746H206.128L206.114 119.734H208.097C208.489 119.734 208.814 119.696 209.074 119.618C209.339 119.541 209.537 119.424 209.669 119.27C209.801 119.115 209.867 118.923 209.867 118.695C209.867 118.518 209.828 118.363 209.751 118.23C209.678 118.094 209.566 117.982 209.416 117.896C209.266 117.804 209.079 117.738 208.855 117.697C208.637 117.652 208.379 117.629 208.083 117.629H206.463V124H205.198V116.604H208.083C208.552 116.604 208.974 116.645 209.348 116.727C209.726 116.809 210.047 116.934 210.312 117.103C210.58 117.267 210.785 117.476 210.927 117.731C211.068 117.987 211.139 118.287 211.139 118.634C211.139 118.857 211.093 119.069 211.002 119.27C210.911 119.47 210.776 119.648 210.599 119.803C210.421 119.958 210.202 120.085 209.942 120.186C209.683 120.281 209.384 120.343 209.047 120.37L208.555 120.746ZM208.555 124H205.67L206.299 122.975H208.555C208.906 122.975 209.197 122.931 209.43 122.845C209.662 122.754 209.835 122.626 209.949 122.462C210.068 122.293 210.127 122.093 210.127 121.86C210.127 121.628 210.068 121.43 209.949 121.266C209.835 121.097 209.662 120.969 209.43 120.883C209.197 120.792 208.906 120.746 208.555 120.746H206.634L206.647 119.734H209.047L209.505 120.117C209.91 120.149 210.255 120.249 210.537 120.418C210.82 120.587 211.034 120.801 211.18 121.061C211.326 121.316 211.398 121.594 211.398 121.895C211.398 122.241 211.332 122.546 211.2 122.811C211.073 123.075 210.886 123.296 210.64 123.474C210.394 123.647 210.095 123.779 209.744 123.87C209.393 123.957 208.997 124 208.555 124ZM217.455 122.735V118.928C217.455 118.636 217.396 118.383 217.277 118.169C217.163 117.95 216.99 117.782 216.758 117.663C216.525 117.545 216.238 117.485 215.896 117.485C215.577 117.485 215.297 117.54 215.056 117.649C214.819 117.759 214.632 117.902 214.495 118.08C214.363 118.258 214.297 118.449 214.297 118.654H213.032C213.032 118.39 213.101 118.128 213.237 117.868C213.374 117.608 213.57 117.374 213.825 117.164C214.085 116.95 214.395 116.781 214.755 116.658C215.119 116.531 215.525 116.467 215.972 116.467C216.509 116.467 216.983 116.558 217.394 116.74C217.808 116.923 218.132 117.198 218.364 117.567C218.601 117.932 218.72 118.39 218.72 118.941V122.387C218.72 122.633 218.74 122.895 218.781 123.173C218.827 123.451 218.893 123.69 218.979 123.891V124H217.66C217.596 123.854 217.546 123.66 217.51 123.419C217.473 123.173 217.455 122.945 217.455 122.735ZM217.674 119.516L217.688 120.404H216.409C216.049 120.404 215.728 120.434 215.445 120.493C215.163 120.548 214.926 120.632 214.734 120.746C214.543 120.86 214.397 121.004 214.297 121.177C214.197 121.345 214.146 121.544 214.146 121.771C214.146 122.004 214.199 122.216 214.304 122.407C214.409 122.599 214.566 122.751 214.775 122.865C214.99 122.975 215.252 123.029 215.562 123.029C215.949 123.029 216.291 122.947 216.587 122.783C216.883 122.619 217.118 122.419 217.291 122.182C217.469 121.945 217.564 121.715 217.578 121.491L218.118 122.1C218.086 122.291 218 122.503 217.858 122.735C217.717 122.968 217.528 123.191 217.291 123.405C217.059 123.615 216.781 123.79 216.457 123.932C216.138 124.068 215.778 124.137 215.377 124.137C214.876 124.137 214.436 124.039 214.058 123.843C213.684 123.647 213.392 123.385 213.183 123.057C212.978 122.724 212.875 122.353 212.875 121.942C212.875 121.546 212.952 121.197 213.107 120.896C213.262 120.591 213.486 120.338 213.777 120.138C214.069 119.933 214.42 119.778 214.83 119.673C215.24 119.568 215.698 119.516 216.204 119.516H217.674ZM225.727 119.81V120.835H221.816V119.81H225.727ZM222.083 116.604V124H220.818V116.604H222.083ZM226.752 116.604V124H225.48V116.604H226.752ZM233.807 119.81V120.835H229.896V119.81H233.807ZM230.163 116.604V124H228.898V116.604H230.163ZM234.832 116.604V124H233.561V116.604H234.832ZM237.908 119.146H240.13C240.727 119.146 241.23 119.251 241.641 119.461C242.051 119.666 242.361 119.951 242.57 120.315C242.785 120.675 242.892 121.086 242.892 121.546C242.892 121.888 242.832 122.209 242.714 122.51C242.595 122.806 242.418 123.066 242.181 123.289C241.948 123.512 241.659 123.688 241.312 123.815C240.971 123.938 240.576 124 240.13 124H236.985V116.604H238.25V122.961H240.13C240.494 122.961 240.786 122.895 241.005 122.763C241.224 122.631 241.381 122.46 241.477 122.25C241.572 122.04 241.62 121.822 241.62 121.594C241.62 121.37 241.572 121.152 241.477 120.938C241.381 120.723 241.224 120.546 241.005 120.404C240.786 120.258 240.494 120.186 240.13 120.186H237.908V119.146ZM245.523 116.604V124H244.259V116.604H245.523ZM248.593 116.604L250.213 119.297L251.854 116.604H253.337L250.917 120.254L253.412 124H251.949L250.24 121.225L248.531 124H247.062L249.55 120.254L247.137 116.604H248.593ZM145.944 143.098C146.245 143.098 146.523 143.036 146.778 142.913C147.034 142.79 147.243 142.621 147.407 142.407C147.571 142.188 147.665 141.94 147.688 141.662H148.891C148.868 142.1 148.72 142.507 148.446 142.886C148.177 143.259 147.824 143.562 147.387 143.795C146.949 144.023 146.468 144.137 145.944 144.137C145.388 144.137 144.903 144.039 144.488 143.843C144.078 143.647 143.736 143.378 143.463 143.036C143.194 142.694 142.991 142.302 142.854 141.86C142.722 141.414 142.656 140.942 142.656 140.445V140.158C142.656 139.661 142.722 139.192 142.854 138.75C142.991 138.303 143.194 137.909 143.463 137.567C143.736 137.226 144.078 136.957 144.488 136.761C144.903 136.565 145.388 136.467 145.944 136.467C146.523 136.467 147.029 136.585 147.462 136.822C147.895 137.055 148.234 137.374 148.48 137.779C148.731 138.18 148.868 138.636 148.891 139.146H147.688C147.665 138.841 147.578 138.565 147.428 138.319C147.282 138.073 147.081 137.877 146.826 137.731C146.576 137.581 146.282 137.506 145.944 137.506C145.557 137.506 145.231 137.583 144.967 137.738C144.707 137.889 144.5 138.094 144.345 138.354C144.194 138.609 144.085 138.894 144.017 139.208C143.953 139.518 143.921 139.835 143.921 140.158V140.445C143.921 140.769 143.953 141.088 144.017 141.402C144.08 141.717 144.188 142.002 144.338 142.257C144.493 142.512 144.7 142.717 144.96 142.872C145.224 143.022 145.552 143.098 145.944 143.098ZM149.978 140.384V140.227C149.978 139.693 150.055 139.199 150.21 138.743C150.365 138.283 150.588 137.884 150.88 137.547C151.172 137.205 151.525 136.941 151.939 136.754C152.354 136.562 152.819 136.467 153.334 136.467C153.854 136.467 154.321 136.562 154.735 136.754C155.155 136.941 155.51 137.205 155.802 137.547C156.098 137.884 156.324 138.283 156.479 138.743C156.633 139.199 156.711 139.693 156.711 140.227V140.384C156.711 140.917 156.633 141.411 156.479 141.867C156.324 142.323 156.098 142.722 155.802 143.063C155.51 143.401 155.157 143.665 154.742 143.856C154.332 144.043 153.867 144.137 153.348 144.137C152.828 144.137 152.361 144.043 151.946 143.856C151.532 143.665 151.176 143.401 150.88 143.063C150.588 142.722 150.365 142.323 150.21 141.867C150.055 141.411 149.978 140.917 149.978 140.384ZM151.242 140.227V140.384C151.242 140.753 151.285 141.102 151.372 141.43C151.459 141.753 151.589 142.04 151.762 142.291C151.939 142.542 152.16 142.74 152.425 142.886C152.689 143.027 152.997 143.098 153.348 143.098C153.694 143.098 153.997 143.027 154.257 142.886C154.521 142.74 154.74 142.542 154.913 142.291C155.086 142.04 155.216 141.753 155.303 141.43C155.394 141.102 155.439 140.753 155.439 140.384V140.227C155.439 139.862 155.394 139.518 155.303 139.194C155.216 138.866 155.084 138.577 154.906 138.326C154.733 138.071 154.514 137.87 154.25 137.725C153.99 137.579 153.685 137.506 153.334 137.506C152.988 137.506 152.682 137.579 152.418 137.725C152.158 137.87 151.939 138.071 151.762 138.326C151.589 138.577 151.459 138.866 151.372 139.194C151.285 139.518 151.242 139.862 151.242 140.227ZM161.161 136.604V144H159.89V136.604H161.161ZM163.643 136.604V137.629H157.456V136.604H163.643ZM166.151 138.025V146.844H164.88V136.604H166.042L166.151 138.025ZM171.135 140.24V140.384C171.135 140.922 171.071 141.421 170.943 141.881C170.816 142.337 170.629 142.733 170.383 143.07C170.141 143.408 169.843 143.67 169.487 143.856C169.132 144.043 168.724 144.137 168.264 144.137C167.794 144.137 167.38 144.059 167.02 143.904C166.66 143.749 166.354 143.524 166.104 143.228C165.853 142.931 165.652 142.576 165.502 142.161C165.356 141.746 165.256 141.279 165.201 140.76V139.994C165.256 139.447 165.358 138.957 165.509 138.524C165.659 138.091 165.857 137.722 166.104 137.417C166.354 137.107 166.657 136.872 167.013 136.713C167.368 136.549 167.778 136.467 168.243 136.467C168.708 136.467 169.12 136.558 169.48 136.74C169.84 136.918 170.144 137.173 170.39 137.506C170.636 137.839 170.82 138.237 170.943 138.702C171.071 139.162 171.135 139.675 171.135 140.24ZM169.863 140.384V140.24C169.863 139.871 169.825 139.525 169.747 139.201C169.67 138.873 169.549 138.586 169.385 138.34C169.225 138.089 169.02 137.893 168.77 137.752C168.519 137.606 168.22 137.533 167.874 137.533C167.555 137.533 167.277 137.588 167.04 137.697C166.808 137.807 166.609 137.955 166.445 138.142C166.281 138.324 166.147 138.534 166.042 138.771C165.942 139.003 165.867 139.244 165.816 139.495V141.266C165.908 141.585 166.035 141.885 166.199 142.168C166.363 142.446 166.582 142.672 166.855 142.845C167.129 143.013 167.473 143.098 167.888 143.098C168.229 143.098 168.523 143.027 168.77 142.886C169.02 142.74 169.225 142.542 169.385 142.291C169.549 142.04 169.67 141.753 169.747 141.43C169.825 141.102 169.863 140.753 169.863 140.384ZM174.744 143.234L176.802 136.604H178.155L175.188 145.142C175.12 145.324 175.029 145.52 174.915 145.729C174.806 145.944 174.664 146.146 174.491 146.338C174.318 146.529 174.108 146.684 173.862 146.803C173.621 146.926 173.331 146.987 172.994 146.987C172.894 146.987 172.766 146.974 172.611 146.946C172.456 146.919 172.347 146.896 172.283 146.878L172.276 145.853C172.313 145.857 172.37 145.862 172.447 145.866C172.529 145.875 172.586 145.88 172.618 145.88C172.905 145.88 173.149 145.841 173.35 145.764C173.55 145.691 173.719 145.565 173.855 145.388C173.997 145.215 174.118 144.975 174.218 144.67L174.744 143.234ZM173.233 136.604L175.154 142.346L175.482 143.679L174.573 144.144L171.853 136.604H173.233ZM180.247 136.604H181.512L181.402 139.372C181.375 140.074 181.295 140.68 181.163 141.19C181.031 141.701 180.862 142.136 180.657 142.496C180.452 142.852 180.222 143.15 179.967 143.392C179.716 143.633 179.456 143.836 179.188 144H178.559L178.593 142.968L178.853 142.961C179.003 142.783 179.149 142.601 179.29 142.414C179.431 142.223 179.561 141.997 179.68 141.737C179.798 141.473 179.896 141.152 179.974 140.773C180.056 140.391 180.108 139.924 180.131 139.372L180.247 136.604ZM180.562 136.604H185.012V144H183.747V137.772H180.562V136.604ZM178.271 142.961H185.962V146.181H184.697V144H179.536V146.181H178.265L178.271 142.961ZM192.381 139.81V140.835H188.471V139.81H192.381ZM188.737 136.604V144H187.473V136.604H188.737ZM193.406 136.604V144H192.135V136.604H193.406ZM196.811 141.997L200.222 136.604H201.493V144H200.222V138.606L196.811 144H195.553V136.604H196.811V141.997ZM204.897 136.604V144H203.633V136.604H204.897ZM209.751 136.604L206.244 140.842H204.474L204.282 139.734H205.731L208.213 136.604H209.751ZM208.391 144L205.67 140.65L206.483 139.734L209.997 144H208.391ZM210.612 140.384V140.227C210.612 139.693 210.69 139.199 210.845 138.743C211 138.283 211.223 137.884 211.515 137.547C211.806 137.205 212.16 136.941 212.574 136.754C212.989 136.562 213.454 136.467 213.969 136.467C214.488 136.467 214.955 136.562 215.37 136.754C215.789 136.941 216.145 137.205 216.437 137.547C216.733 137.884 216.958 138.283 217.113 138.743C217.268 139.199 217.346 139.693 217.346 140.227V140.384C217.346 140.917 217.268 141.411 217.113 141.867C216.958 142.323 216.733 142.722 216.437 143.063C216.145 143.401 215.792 143.665 215.377 143.856C214.967 144.043 214.502 144.137 213.982 144.137C213.463 144.137 212.996 144.043 212.581 143.856C212.166 143.665 211.811 143.401 211.515 143.063C211.223 142.722 211 142.323 210.845 141.867C210.69 141.411 210.612 140.917 210.612 140.384ZM211.877 140.227V140.384C211.877 140.753 211.92 141.102 212.007 141.43C212.093 141.753 212.223 142.04 212.396 142.291C212.574 142.542 212.795 142.74 213.06 142.886C213.324 143.027 213.632 143.098 213.982 143.098C214.329 143.098 214.632 143.027 214.892 142.886C215.156 142.74 215.375 142.542 215.548 142.291C215.721 142.04 215.851 141.753 215.938 141.43C216.029 141.102 216.074 140.753 216.074 140.384V140.227C216.074 139.862 216.029 139.518 215.938 139.194C215.851 138.866 215.719 138.577 215.541 138.326C215.368 138.071 215.149 137.87 214.885 137.725C214.625 137.579 214.32 137.506 213.969 137.506C213.622 137.506 213.317 137.579 213.053 137.725C212.793 137.87 212.574 138.071 212.396 138.326C212.223 138.577 212.093 138.866 212.007 139.194C211.92 139.518 211.877 139.862 211.877 140.227ZM222.404 140.746H219.978L219.964 139.734H221.946C222.338 139.734 222.664 139.696 222.924 139.618C223.188 139.541 223.386 139.424 223.519 139.27C223.651 139.115 223.717 138.923 223.717 138.695C223.717 138.518 223.678 138.363 223.601 138.23C223.528 138.094 223.416 137.982 223.266 137.896C223.115 137.804 222.928 137.738 222.705 137.697C222.486 137.652 222.229 137.629 221.933 137.629H220.312V144H219.048V136.604H221.933C222.402 136.604 222.824 136.645 223.197 136.727C223.576 136.809 223.897 136.934 224.161 137.103C224.43 137.267 224.635 137.476 224.776 137.731C224.918 137.987 224.988 138.287 224.988 138.634C224.988 138.857 224.943 139.069 224.852 139.27C224.76 139.47 224.626 139.648 224.448 139.803C224.271 139.958 224.052 140.085 223.792 140.186C223.532 140.281 223.234 140.343 222.896 140.37L222.404 140.746ZM222.404 144H219.52L220.148 142.975H222.404C222.755 142.975 223.047 142.931 223.279 142.845C223.512 142.754 223.685 142.626 223.799 142.462C223.917 142.293 223.977 142.093 223.977 141.86C223.977 141.628 223.917 141.43 223.799 141.266C223.685 141.097 223.512 140.969 223.279 140.883C223.047 140.792 222.755 140.746 222.404 140.746H220.483L220.497 139.734H222.896L223.354 140.117C223.76 140.149 224.104 140.249 224.387 140.418C224.669 140.587 224.883 140.801 225.029 141.061C225.175 141.316 225.248 141.594 225.248 141.895C225.248 142.241 225.182 142.546 225.05 142.811C224.922 143.075 224.735 143.296 224.489 143.474C224.243 143.647 223.945 143.779 223.594 143.87C223.243 143.957 222.846 144 222.404 144Z" fill="#706A5E"/>
<path d="M63.6992 30.0176C64.918 30.0176 65.8906 30.4219 66.6172 31.2305C67.3438 32.0391 67.707 33.1377 67.707 34.5264V34.6494C67.707 36.0205 67.3027 37.1191 66.4941 37.9453C65.6855 38.7715 64.5986 39.1846 63.2334 39.1846C61.8623 39.1846 60.7695 38.7393 59.9551 37.8486C59.1465 36.9521 58.7422 35.7363 58.7422 34.2012V33.7793C58.7539 31.6406 59.1143 29.9678 59.8232 28.7607C60.5381 27.5479 61.6104 26.7832 63.04 26.4668C63.79 26.3027 64.2734 26.1416 64.4902 25.9834C64.707 25.8193 64.8154 25.5938 64.8154 25.3066H66.8721C66.8721 26.2266 66.623 26.918 66.125 27.3809C65.6328 27.8438 64.7539 28.2012 63.4883 28.4531C62.7383 28.6055 62.1465 28.9014 61.7129 29.3408C61.2793 29.7803 60.9863 30.3984 60.834 31.1953C61.6426 30.4102 62.5977 30.0176 63.6992 30.0176ZM63.2158 32.0742C62.6123 32.0742 62.1377 32.2764 61.792 32.6807C61.4521 33.085 61.2822 33.7412 61.2822 34.6494C61.2822 35.458 61.4492 36.0762 61.7832 36.5039C62.1172 36.9258 62.6006 37.1367 63.2334 37.1367C63.8486 37.1367 64.3232 36.9287 64.6572 36.5127C64.9912 36.0967 65.1611 35.4844 65.167 34.6758V34.4648C65.167 33.6855 64.9941 33.0938 64.6484 32.6895C64.3086 32.2793 63.8311 32.0742 63.2158 32.0742ZM68.832 34.1572C68.832 33.2139 69.0137 32.373 69.377 31.6348C69.7402 30.8965 70.2617 30.3252 70.9414 29.9209C71.627 29.5166 72.4209 29.3145 73.3232 29.3145C74.6064 29.3145 75.6523 29.707 76.4609 30.4922C77.2754 31.2773 77.7295 32.3438 77.8232 33.6914L77.8408 34.3418C77.8408 35.8008 77.4336 36.9727 76.6191 37.8574C75.8047 38.7363 74.7119 39.1758 73.3408 39.1758C71.9697 39.1758 70.874 38.7363 70.0537 37.8574C69.2393 36.9785 68.832 35.7832 68.832 34.2715V34.1572ZM71.3721 34.3418C71.3721 35.2441 71.542 35.9355 71.8818 36.416C72.2217 36.8906 72.708 37.1279 73.3408 37.1279C73.9561 37.1279 74.4365 36.8936 74.7822 36.4248C75.1279 35.9502 75.3008 35.1943 75.3008 34.1572C75.3008 33.2725 75.1279 32.5869 74.7822 32.1006C74.4365 31.6143 73.9502 31.3711 73.3232 31.3711C72.7021 31.3711 72.2217 31.6143 71.8818 32.1006C71.542 32.5811 71.3721 33.3281 71.3721 34.3418ZM87.5352 29.4902V39H84.9951V31.5469H82.7539L82.5957 34.4824C82.4961 36.0469 82.1885 37.1865 81.6729 37.9014C81.1572 38.6162 80.3896 38.9824 79.3701 39H78.5088L78.4824 36.9346L78.7988 36.9082C79.2559 36.873 79.5898 36.6035 79.8008 36.0996C80.0117 35.5957 80.1436 34.7373 80.1963 33.5244L80.3721 29.4902H87.5352ZM93.8721 39.1758C92.4775 39.1758 91.3408 38.748 90.4619 37.8926C89.5889 37.0371 89.1523 35.8975 89.1523 34.4736V34.2275C89.1523 33.2725 89.3369 32.4199 89.7061 31.6699C90.0752 30.9141 90.5967 30.334 91.2705 29.9297C91.9502 29.5195 92.7236 29.3145 93.5908 29.3145C94.8916 29.3145 95.9141 29.7246 96.6582 30.5449C97.4082 31.3652 97.7832 32.5283 97.7832 34.0342V35.0713H91.7275C91.8096 35.6924 92.0557 36.1904 92.4658 36.5654C92.8818 36.9404 93.4062 37.1279 94.0391 37.1279C95.0176 37.1279 95.7822 36.7734 96.333 36.0645L97.5811 37.4619C97.2002 38.001 96.6846 38.4229 96.0342 38.7275C95.3838 39.0264 94.6631 39.1758 93.8721 39.1758ZM93.582 31.3711C93.0781 31.3711 92.668 31.541 92.3516 31.8809C92.041 32.2207 91.8418 32.707 91.7539 33.3398H95.2871V33.1377C95.2754 32.5752 95.123 32.1416 94.8301 31.8369C94.5371 31.5264 94.1211 31.3711 93.582 31.3711ZM103.61 39.1758C102.216 39.1758 101.079 38.748 100.2 37.8926C99.3271 37.0371 98.8906 35.8975 98.8906 34.4736V34.2275C98.8906 33.2725 99.0752 32.4199 99.4443 31.6699C99.8135 30.9141 100.335 30.334 101.009 29.9297C101.688 29.5195 102.462 29.3145 103.329 29.3145C104.63 29.3145 105.652 29.7246 106.396 30.5449C107.146 31.3652 107.521 32.5283 107.521 34.0342V35.0713H101.466C101.548 35.6924 101.794 36.1904 102.204 36.5654C102.62 36.9404 103.145 37.1279 103.777 37.1279C104.756 37.1279 105.521 36.7734 106.071 36.0645L107.319 37.4619C106.938 38.001 106.423 38.4229 105.772 38.7275C105.122 39.0264 104.401 39.1758 103.61 39.1758ZM103.32 31.3711C102.816 31.3711 102.406 31.541 102.09 31.8809C101.779 32.2207 101.58 32.707 101.492 33.3398H105.025V33.1377C105.014 32.5752 104.861 32.1416 104.568 31.8369C104.275 31.5264 103.859 31.3711 103.32 31.3711Z" fill="#706A5E"/>
</svg>
