<svg width="79" height="40" viewBox="0 0 79 40" fill="none" xmlns="http://www.w3.org/2000/svg">
<path d="M64.0525 20.7071C64.443 20.3166 64.443 19.6834 64.0525 19.2929L57.6886 12.9289C57.298 12.5384 56.6649 12.5384 56.2743 12.9289C55.8838 13.3195 55.8838 13.9526 56.2743 14.3431L61.9312 20L56.2743 25.6569C55.8838 26.0474 55.8838 26.6805 56.2743 27.0711C56.6649 27.4616 57.298 27.4616 57.6886 27.0711L64.0525 20.7071ZM63 21H63.3454V19H63V21Z" fill="white"/>
<rect x="39.5" y="0.5" width="39" height="39" stroke="white"/>
<path d="M15.2929 19.2929C14.9024 19.6834 14.9024 20.3166 15.2929 20.7071L21.6569 27.0711C22.0474 27.4616 22.6805 27.4616 23.0711 27.0711C23.4616 26.6805 23.4616 26.0474 23.0711 25.6569L17.4142 20L23.0711 14.3431C23.4616 13.9526 23.4616 13.3195 23.0711 12.9289C22.6805 12.5384 22.0474 12.5384 21.6569 12.9289L15.2929 19.2929ZM17 19H16V21H17V19Z" fill="white"/>
<rect x="0.5" y="0.5" width="39" height="39" stroke="white"/>
</svg>
