<svg width="208" height="286" viewBox="0 0 208 286" fill="none" xmlns="http://www.w3.org/2000/svg">
<path d="M118.631 285.19C165.127 285.19 202.819 284.666 202.819 284.019C202.819 283.373 165.127 282.849 118.631 282.849C72.136 282.849 34.444 283.373 34.444 284.019C34.444 284.666 72.136 285.19 118.631 285.19Z" fill="#5D5D5D"/>
<path d="M172.22 90.9818C181.667 87.8885 197.217 84.4608 186.015 74.5122C175.23 64.9815 188.523 54.8657 174.896 45.9202C161.854 37.3928 171.301 24.2673 151.905 28.1966C114.953 20.0871 138.947 102.017 172.22 90.9818Z" fill="#93542A"/>
<path d="M151.069 80.8662C151.905 88.3904 136.271 122.082 134.349 122.166C129.5 122.333 148.394 56.4544 151.069 80.8662Z" fill="#FFC397"/>
<path d="M135.854 106.532C137.609 104.943 139.532 103.439 141.706 102.017C143.043 101.098 144.465 100.262 145.886 99.4256C149.063 91.567 151.487 84.0428 151.153 80.866C149.313 64.4799 140.201 88.8082 135.854 106.532Z" fill="#EF8F6F"/>
<path d="M136.606 119.072C134.181 125.593 110.188 139.638 104.754 142.815C104.419 142.313 104.503 141.645 105.088 141.059C115.037 130.86 130.67 119.908 134.181 114.725C135.018 113.554 136.021 117.734 136.606 119.072Z" fill="#FFC397"/>
<path d="M186.015 74.5121C175.23 64.9815 188.523 54.8656 174.896 45.9202C166.368 40.3188 167.372 32.9619 163.693 29.4506C164.445 32.7946 155.166 37.56 156.252 45.5858C157.924 57.5409 152.072 59.4637 142.542 57.2065C139.03 56.3705 135.937 54.364 133.513 51.6051C135.603 72.2549 151.153 97.9208 172.22 90.9818C181.668 87.8885 197.301 84.4608 186.015 74.5121Z" fill="#7F4220"/>
<path d="M140.452 56.036C140.284 59.6309 139.783 63.811 141.288 68.1584C145.133 79.4447 153.661 87.8885 160.6 87.3869C167.79 86.8853 170.966 77.1038 167.372 65.0651C165.198 57.7917 161.101 51.5215 156.503 47.843C157.256 58.5441 149.23 60.2161 140.452 56.036Z" fill="#6B3418"/>
<path d="M122.393 220.733C124.4 203.009 133.847 154.938 137.693 148.751C149.815 129.188 159.429 153.098 157.841 158.449C156.252 163.716 125.905 221.987 125.905 221.987L122.393 220.733Z" fill="#FFC397"/>
<path d="M143.963 141.979C150.149 143.735 154.33 155.188 153.326 158.7C152.072 163.465 128.831 211.285 124.065 221.234L125.905 221.819C125.905 221.819 156.252 163.632 157.841 158.282C159.178 154.018 152.908 137.13 143.963 141.979Z" fill="#EF8F6F"/>
<path d="M137.693 148.667C135.853 151.593 132.76 164.05 129.834 178.179C134.85 179.934 140.619 181.105 146.722 181.523C152.407 170.237 157.256 160.455 157.841 158.365C159.429 153.098 149.815 129.104 137.693 148.667Z" fill="#EF8F6F"/>
<path d="M171.468 226.668C168.04 201.17 156.587 161.375 157.841 150.34C158.677 143.317 177.237 142.732 179.076 147.748C184.259 161.626 174.227 226.083 174.227 226.083L171.468 226.668Z" fill="#FFC397"/>
<path d="M179.076 147.748C177.655 143.902 166.368 143.4 160.85 146.494C166.703 144.487 175.565 145.323 176.819 148.667C181.751 161.876 172.973 220.649 172.053 226.501L174.227 225.999C174.227 225.999 184.259 161.626 179.076 147.748Z" fill="#EF8F6F"/>
<path d="M179.076 147.831C177.237 142.648 158.677 143.233 157.841 150.59C157.256 155.857 159.262 167.31 162.021 180.77C165.114 180.269 168.375 179.433 171.552 178.346C174.645 177.259 177.487 176.005 180.163 174.584C180.832 162.796 180.748 152.596 179.076 147.831Z" fill="#EF8F6F"/>
<path d="M136.606 155.774C139.95 140.892 151.821 110.796 131.84 99.2585C131.84 99.2585 135.937 72.1714 154.162 72.1714C173.474 72.0878 168.291 87.1361 164.78 98.6732C162.941 104.776 150.149 115.979 174.561 144.32C192.452 164.97 141.956 174.584 136.606 155.774Z" fill="#FFC397"/>
<path d="M175.397 143.818C151.069 115.477 163.024 104.776 164.863 98.6733C167.204 90.7311 170.465 81.2004 165.95 75.9335C165.532 77.6891 164.027 77.9399 162.69 79.8628C158.008 86.5509 153.494 93.0719 141.956 91.3163C136.271 90.3966 137.191 83.1233 148.227 73.3418C134.014 80.6988 131.924 99.2585 131.924 99.2585C151.905 110.796 139.114 140.307 135.686 155.188C140.953 174.082 193.205 164.552 175.397 143.818Z" fill="#F7A27C"/>
<path d="M129.918 171.909C131.005 176.172 146.387 178.43 150.902 176.925C150.902 176.925 154.58 166.725 156.002 166.809C157.339 166.892 159.513 176.172 159.513 176.172C159.513 176.172 173.976 174.751 181.668 168.23C181.668 168.23 183.59 147.413 173.391 140.056C173.391 140.056 154.999 154.436 137.108 147.664L129.918 171.909Z" fill="#7069AF"/>
<path d="M151.32 167.311C149.23 169.401 147.223 171.909 143.879 177.259C146.805 177.51 149.397 177.426 150.818 176.925C150.818 176.925 154.497 166.725 155.918 166.809C156.252 166.809 156.67 167.478 157.088 168.481C156.252 164.552 154.162 164.468 151.32 167.311Z" fill="#605696"/>
<path d="M173.307 140.056C173.307 140.056 170.883 141.895 167.037 143.985C169.88 148.584 172.388 155.105 173.976 162.629C174.645 165.889 175.063 169.066 175.314 172.076C177.571 171.073 179.828 169.819 181.584 168.23C181.584 168.314 183.507 147.413 173.307 140.056Z" fill="#605696"/>
<path d="M174.394 141.896C173.976 141.561 173.642 141.227 173.224 140.892C173.224 140.892 154.831 155.188 136.857 148.417L136.439 149.922C154.998 156.777 173.976 142.23 174.394 141.896Z" fill="#605696"/>
<path d="M159.095 174.5C159.429 175.838 159.68 176.841 159.68 176.841C159.68 176.841 173.558 175.336 180.915 169.233C180.915 169.233 181.082 167.812 181.082 165.639C175.983 169.819 168.208 173.163 159.095 174.5Z" fill="#605696"/>
<path d="M130.586 169.986C130.168 171.323 129.834 172.327 129.834 172.327C129.834 172.327 141.12 178.179 149.982 176.674C149.982 176.674 150.818 175.504 151.989 173.664C145.886 174.584 138.194 173.414 130.586 169.986Z" fill="#605696"/>
<path d="M136.857 141.979C148.227 147.748 168.124 138.217 172.053 134.789C172.053 134.789 162.188 121.413 163.86 111.13C165.449 101.599 175.146 86.8018 166.703 76.1008C165.95 75.1811 164.362 75.3483 163.944 76.5188C162.272 81.8693 157.172 94.5768 143.378 92.4032C132.928 90.7311 136.69 83.625 141.789 78.4416C145.301 74.8467 149.731 72.5059 149.731 72.5059C149.731 72.5059 134.767 75.5991 130.587 99.3422C130.587 99.3422 139.365 108.873 139.699 119.239C140.117 127.851 138.194 133.117 136.857 141.979Z" fill="#FFEBCA"/>
<path d="M163.944 111.213C165.532 101.766 174.979 87.3032 167.121 76.6021C163.108 74.2613 164.445 85.7148 162.105 90.3965C156.085 102.77 140.87 103.271 131.339 98.5895C131.172 98.5059 131.005 98.4223 130.838 98.3387C130.754 98.6731 130.67 99.0075 130.67 99.4256C130.67 99.4256 133.847 102.853 136.439 107.869C136.522 107.786 136.606 107.786 136.773 107.702C144.047 104.776 154.413 113.471 160.015 127.098C161.77 131.362 162.857 135.709 163.275 139.638C167.455 137.883 170.716 135.96 172.053 134.789C172.053 134.789 162.188 121.413 163.944 111.213Z" fill="#F2CAAA"/>
<path d="M169.88 91.4836C171.385 82.9562 168.458 77.1876 166.452 77.0204C164.445 76.8532 163.777 85.1299 162.523 90.8984C161.269 96.667 162.105 101.432 164.027 102.101C166.201 102.854 168.876 97.2522 169.88 91.4836Z" fill="#C6926F"/>
<path d="M169.462 90.8145C170.298 85.3804 167.957 77.1874 166.285 76.9366C164.613 76.6858 164.362 84.4608 163.526 89.8113C162.69 95.2455 163.275 99.76 164.947 100.094C166.535 100.345 168.542 96.1651 169.462 90.8145Z" fill="#F7A27C"/>
<path d="M123.146 281.01C123.23 273.82 118.13 227.17 123.313 218.642L126.239 219.729C126.239 219.729 130.085 231.183 130.085 235.864C130.085 240.546 124.985 270.977 125.905 281.26L123.146 281.01Z" fill="#FFC397"/>
<path d="M128.162 234.861C127.995 239.376 124.149 269.723 124.484 281.177L125.905 281.344C124.985 270.977 130.085 240.63 130.085 235.948C130.085 231.266 126.825 219.813 126.825 219.813L125.069 219.311C125.738 221.819 128.246 230.848 128.162 234.861Z" fill="#EF8F6F"/>
<path d="M168.458 280.007C168.876 273.068 166.452 227.672 172.053 219.813L174.896 221.067C174.896 221.067 178.073 232.353 177.822 236.951C177.571 241.466 170.799 270.476 171.217 280.508L168.458 280.007Z" fill="#FFC397"/>
<path d="M174.979 220.231L173.224 219.98C174.31 224.662 176.735 233.691 176.651 236.951C176.484 241.466 170.298 270.058 170.716 280.341L171.217 280.424C170.883 270.392 177.571 241.382 177.822 236.868C178.073 232.353 174.979 220.231 174.979 220.231Z" fill="#EF8F6F"/>
<path d="M149.731 73.8432L148.143 59.2128L158.008 55.4507L159.847 73.2579C159.847 73.3416 154.246 78.7757 149.731 73.8432Z" fill="#EF8F6F"/>
<path d="M174.478 140.642C174.06 140.307 173.725 139.973 173.307 139.638C173.307 139.638 154.915 154.018 137.024 147.246L136.606 148.751C155.166 155.439 174.06 140.892 174.478 140.642Z" fill="#B8AEED"/>
<path d="M140.535 91.3164L145.468 86.8855L143.545 91.9016L140.535 91.3164Z" fill="#F7A27C"/>
<path d="M150.818 164.05C150.818 164.05 155.082 165.638 160.432 163.632C160.432 163.632 158.844 167.143 155.166 166.809C151.571 166.474 150.818 164.05 150.818 164.05Z" fill="#605696"/>
<path d="M129.834 171.24L129.333 172.745C130.419 177.092 146.137 179.767 150.818 178.263C150.818 178.263 151.236 177.092 151.905 175.587C143.461 175.671 135.77 174.082 129.834 171.24Z" fill="#B8AEED"/>
<path d="M158.593 175.336C159.011 176.841 159.262 178.012 159.262 178.012C159.262 178.012 174.394 176.59 182.336 169.735C182.336 169.735 182.503 168.147 182.503 165.722C176.902 170.32 168.458 173.915 158.593 175.336Z" fill="#B8AEED"/>
<path d="M138.947 147.33L139.866 145.658C139.866 145.658 147.391 147.246 154.079 145.323C154.079 145.323 153.076 149.838 138.947 147.33Z" fill="#FFC397"/>
<path d="M158.51 141.477C158.008 135.458 155.584 115.728 154.915 114.557C154.246 113.387 160.683 128.77 161.018 140.558C159.597 141.143 158.51 141.477 158.51 141.477Z" fill="#F2CAAA"/>
<path d="M148.477 160.873C147.14 158.699 147.474 156.108 149.481 154.018C150.317 153.098 149.899 151.008 149.648 150.256L150.818 149.838C150.902 150.005 151.905 153.182 150.4 154.77C149.648 155.606 148.059 157.696 149.564 160.121L148.477 160.873Z" fill="#B8AEED"/>
<path d="M158.844 157.696C158.51 155.188 156.67 153.433 153.912 152.847C152.741 152.597 151.738 150.757 151.487 150.005L150.4 150.339C150.484 150.507 151.654 153.6 153.744 154.018C154.748 154.185 157.256 154.938 157.674 157.78L158.844 157.696Z" fill="#B8AEED"/>
<path opacity="0.5" d="M166.953 83.7086C167.957 83.207 168.876 82.7053 169.796 82.1201C169.378 80.4481 168.876 79.194 168.208 78.2744C167.79 77.522 167.372 76.8532 166.786 76.1008C166.452 75.6828 166.034 75.5156 165.532 75.5156C164.195 74.1779 162.355 73.1747 159.847 72.5895L158.426 59.1295C157.59 59.4639 156.754 59.8819 155.918 60.2999C153.326 61.6376 150.902 63.226 148.895 64.8981L149.731 72.5895C149.146 72.7567 147.474 73.2583 145.217 74.5959C143.628 75.5156 155.584 89.4771 166.953 83.7086ZM149.648 72.6731V72.7567C149.564 72.7567 149.397 72.8403 149.313 72.8403C149.397 72.7567 149.564 72.6731 149.648 72.6731Z" fill="#C15A46"/>
<path d="M190.78 112.718C195.713 118.069 198.973 147.079 199.726 153.683C199.14 153.767 198.555 153.349 198.304 152.597C192.954 138.551 189.275 118.738 186.015 112.969C185.262 111.715 189.359 112.718 190.78 112.718Z" fill="#FFC397"/>
<path d="M164.947 82.5378C166.201 89.9784 190.947 119.992 192.87 119.741C197.719 119.156 160.934 58.4604 164.947 82.5378Z" fill="#FFC397"/>
<path d="M159.011 51.2706C158.51 47.9265 162.523 45.5021 164.362 47.6757C166.285 49.7658 160.767 62.3897 159.011 51.2706Z" fill="#FFC397"/>
<path d="M160.433 51.438C160.098 49.5987 162.355 48.2611 163.442 49.4315C164.445 50.6019 161.436 57.6245 160.433 51.438Z" fill="#EF8F6F"/>
<path d="M159.847 52.8592C159.513 51.02 161.77 49.6823 162.857 50.8528C163.86 52.0232 160.85 58.9622 159.847 52.8592Z" fill="#FFC397"/>
<path d="M165.783 136.963L166.87 139.555L168.625 138.719L167.455 136.294L165.783 136.963Z" fill="#C65878"/>
<path d="M160.014 64.3126C159.095 66.5699 152.49 71.586 146.387 70.9172C146.387 70.9172 139.03 60.5505 139.95 55.618C140.284 53.8623 140.201 52.4411 139.95 51.5215C139.03 47.6758 140.033 39.7336 144.632 36.9747C147.391 35.3026 153.995 40.9876 157.172 44.4153C165.281 53.0263 160.934 62.0553 160.014 64.3126Z" fill="#FFC397"/>
<path d="M157.757 45.0005C160.767 52.1067 158.928 61.9717 158.426 63.8946C157.841 66.2354 152.323 70.9171 146.304 70.8335C146.304 70.9171 146.387 70.9171 146.387 70.9171C152.49 71.586 159.095 66.5698 160.015 64.3126C160.934 62.0553 165.031 53.4443 157.757 45.0005Z" fill="#F7A27C"/>
<path d="M140.034 51.5215C140.284 52.4412 140.368 53.8624 140.034 55.6181C139.365 59.2966 141.538 63.0586 143.545 66.1519C144.548 62.7242 144.632 63.3095 145.635 58.7113C148.812 43.4121 139.699 47.7595 139.866 49.6823C139.783 50.4347 139.866 51.0199 140.034 51.5215Z" fill="#F7A27C"/>
<path d="M154.998 49.4315C153.744 47.9267 150.735 45.0842 146.387 47.5087C149.648 46.5891 151.571 46.8399 154.998 49.4315Z" fill="#7F4632"/>
<path d="M146.304 54.7821C147.14 54.4476 146.387 56.6213 146.387 57.6245C146.471 58.6278 146.471 63.0587 143.712 60.5506C142.04 59.1294 144.799 59.213 146.304 54.7821Z" fill="#FFC397"/>
<path d="M144.966 63.4766C144.799 64.3126 147.223 68.8271 148.728 68.6599C149.899 68.5763 150.568 64.1454 150.233 63.3094C149.731 62.7242 145.802 62.975 144.966 63.4766Z" fill="#472D1F"/>
<path d="M145.551 63.5601C147.056 63.2257 148.227 62.9749 149.815 63.3093C149.815 63.3093 149.731 65.4829 148.477 65.6501C146.137 65.901 145.551 63.5601 145.551 63.5601Z" fill="#FCE7DE"/>
<path d="M151.989 52.1905C151.821 51.1037 150.985 50.3513 150.233 50.5185C149.481 50.6857 148.979 51.6889 149.23 52.6922C149.397 53.779 150.233 54.5314 150.985 54.3642C151.738 54.2806 152.156 53.2774 151.989 52.1905Z" fill="#5B371E"/>
<path d="M153.661 51.6889C152.156 50.6021 150.149 49.6825 147.725 51.6053C150.066 50.9365 151.738 51.2709 153.661 51.6889Z" fill="#5B371E"/>
<path d="M144.381 53.3608C144.13 52.3575 143.378 51.6887 142.709 51.8559C142.04 52.1067 141.706 53.11 142.04 54.1132C142.291 55.1164 143.043 55.7852 143.712 55.618C144.381 55.4508 144.715 54.4476 144.381 53.3608Z" fill="#5B371E"/>
<path d="M145.384 52.1068C144.046 51.438 142.458 50.9364 140.619 53.1936C142.542 52.0232 143.796 52.0232 145.384 52.1068Z" fill="#5B371E"/>
<path d="M139.616 49.7658C140.034 48.9298 141.622 46.3381 145.468 47.6757C142.458 47.5085 141.12 47.9265 139.616 49.7658Z" fill="#7F4632"/>
<path d="M199.057 147.413C200.06 149.253 205.41 150.925 203.906 152.597C202.568 154.102 198.304 155.021 197.385 148.5L199.057 147.413Z" fill="#FFC397"/>
<path d="M198.555 151.594C200.812 148.835 203.989 150.758 204.742 151.594C205.578 152.513 204.407 154.938 203.237 155.439C202.066 155.941 197.635 152.597 198.555 151.594Z" fill="#FFC397"/>
<path d="M200.896 154.352C200.896 156.192 199.976 158.449 199.224 158.365C198.388 158.365 199.558 156.443 199.14 154.938C198.639 153.266 198.472 152.179 199.224 151.844C199.893 151.426 200.896 152.513 200.896 154.352Z" fill="#FFC397"/>
<path d="M204.156 156.275C205.243 157.529 205.41 158.449 204.992 158.783C204.574 159.118 203.989 158.365 202.986 157.111C201.899 155.857 200.227 154.603 200.645 154.352C201.063 154.018 203.153 155.021 204.156 156.275Z" fill="#FFC397"/>
<path d="M205.745 154.603C207.083 155.606 207.751 157.111 207.333 157.445C206.999 157.78 205.996 156.609 204.658 155.606C203.32 154.603 202.484 153.934 202.819 153.516C203.237 153.182 204.407 153.683 205.745 154.603Z" fill="#FFC397"/>
<path d="M205.996 152.43C207.333 153.433 207.751 154.352 207.333 154.771C206.999 155.105 206.247 154.269 204.992 153.182C203.655 152.179 202.819 151.426 203.153 151.008C203.488 150.674 204.658 151.343 205.996 152.43Z" fill="#FFC397"/>
<path d="M110.271 139.471C108.766 140.642 108.516 145.825 106.593 144.738C104.921 143.735 102.998 139.973 108.85 138.05L110.271 139.471Z" fill="#FFC397"/>
<path d="M106.342 139.722C109.435 141.394 108.348 144.571 107.763 145.407C107.094 146.327 104.586 145.658 103.918 144.655C103.249 143.651 105.171 139.053 106.342 139.722Z" fill="#FFC397"/>
<path d="M104.419 142.314C102.747 142.648 100.406 142.147 100.323 141.394C100.155 140.642 102.162 141.394 103.499 140.725C104.921 139.973 105.924 139.639 106.426 140.307C106.844 140.976 106.091 142.063 104.419 142.314Z" fill="#FFC397"/>
<path d="M103.416 145.658C102.496 146.828 101.66 147.163 101.326 146.828C100.908 146.494 101.493 145.825 102.413 144.738C103.332 143.568 104.085 141.812 104.419 142.146C104.753 142.481 104.252 144.487 103.416 145.658Z" fill="#FFC397"/>
<path d="M105.255 146.828C104.67 148.249 103.416 149.002 102.998 148.751C102.58 148.5 103.499 147.413 104.085 145.992C104.67 144.571 105.171 143.735 105.589 143.986C106.007 144.32 105.84 145.49 105.255 146.828Z" fill="#FFC397"/>
<path d="M107.429 146.661C106.76 147.999 106.008 148.584 105.59 148.25C105.172 147.999 105.84 147.163 106.426 145.825C107.094 144.488 107.512 143.568 107.93 143.819C108.432 144.153 108.014 145.324 107.429 146.661Z" fill="#FFC397"/>
<path d="M159.513 56.5378C160.098 50.5184 159.513 47.6759 162.69 46.6727L157.506 40.1517C157.423 40.1517 156.921 51.02 159.513 56.5378Z" fill="#7F4220"/>
<path d="M126.406 283.267H115.622C115.622 283.267 122.644 279.254 124.734 279.254C126.741 279.338 126.406 283.267 126.406 283.267Z" fill="#FFE0BB"/>
<path d="M175.397 283.267H164.613C164.613 283.267 167.789 279.254 169.879 279.254C171.97 279.338 175.397 283.267 175.397 283.267Z" fill="#FFE0BB"/>
<path d="M42.0519 189.381C42.8044 178.513 44.0584 160.204 36.1998 159.201C35.1965 159.034 34.3605 159.368 33.6081 160.037C28.8427 164.468 30.264 185.201 30.3476 186.121L31.3508 186.037C31.3508 185.786 29.9295 164.969 34.2769 160.789C34.7785 160.288 35.3637 160.121 36.0325 160.204C42.9716 161.124 41.7175 179.516 41.0487 189.298L42.0519 189.381Z" fill="#5981A5"/>
<path d="M16.8876 239.459L26.5854 183.446L31.4343 182.61L27.8394 240.379L16.8876 239.459Z" fill="#80A6CE"/>
<path d="M47.904 240.044L46.6499 189.298L31.4345 182.61L27.8396 240.379L47.904 240.044Z" fill="#5981A5"/>
<path d="M46.6499 189.298L31.4345 182.61L27.8396 240.379L46.6499 189.298Z" fill="#507A99"/>
<path d="M52.6694 188.964C52.6694 188.964 87.0298 203.427 88.2838 225.163C89.5378 246.9 44.6436 200.919 39.9619 193.478L52.6694 188.964Z" fill="#8E4365"/>
<path d="M85.8594 139.304L90.4575 134.539L91.4607 126.847L88.2838 132.282L76.8303 124.005L85.8594 139.304Z" fill="#8E4365"/>
<path d="M87.6986 116.982L91.3771 122.333L91.1263 130.024L88.9526 124.172L76.2451 130.275L87.6986 116.982Z" fill="#AF4A73"/>
<path d="M75.4092 103.689C76.914 103.773 90.6247 95.6635 90.7919 92.0686L96.7276 95.7471C96.7276 95.7471 94.4703 111.297 78.3352 113.387L75.4092 103.689Z" fill="#AF4A73"/>
<path d="M42.5533 154.018C43.5566 149.503 45.8139 115.728 43.1386 106.197L49.7432 97.5028C49.7432 97.5028 58.1871 141.227 51.8333 169.484L42.5533 154.018Z" fill="#AF4A73"/>
<path d="M35.1964 163.381C34.9456 163.883 36.1997 163.799 37.0357 164.134C37.8717 164.468 38.6241 164.552 38.7913 164.05C39.0422 163.549 38.4569 162.796 37.6209 162.462C36.7849 162.044 35.4473 162.796 35.1964 163.381Z" fill="#FFCD9C"/>
<path d="M37.2865 154.018C36.3669 155.69 32.6048 161.877 34.026 163.047C34.7785 163.632 36.1161 164.552 37.2865 162.713C38.1225 161.291 38.8749 157.696 38.7913 154.436L37.2865 154.018Z" fill="#FFCD9C"/>
<path d="M64.2064 30.7046C71.5634 34.1323 85.5251 40.5697 86.9463 60.5506C87.6987 71.4189 83.2678 90.8982 67.8013 91.9851C52.3349 92.9883 41.383 94.4931 45.2287 62.3899C49.158 30.2866 54.0905 25.4377 64.2064 30.7046Z" fill="#602721"/>
<path d="M44.2254 72.4221C44.2254 72.1713 44.2254 71.9205 44.2254 71.7533C44.2254 71.3353 44.2254 70.8337 44.2254 70.4157C44.2254 69.8305 44.2254 69.2453 44.309 68.66C44.3926 66.57 44.5598 64.2291 44.8942 61.7211C47.4859 37.9781 50.4956 28.531 57.1838 26.4409C59.3574 25.4377 61.6983 25.4377 64.3736 26.3573C65.126 26.5245 65.7948 26.6081 66.6308 26.859C67.1324 26.6918 67.6341 26.5245 68.1357 26.4409C69.7242 25.8557 71.5634 26.1065 73.4862 27.0262C77.9172 28.8654 82.1809 34.1323 85.7758 41.991C88.3675 47.4251 90.2067 53.7789 90.8755 60.2998C91.8787 71.3353 86.8626 91.0654 70.0586 92.1523C66.6309 92.4031 63.4539 92.5703 60.5279 92.5703C62.8687 92.5703 65.3768 92.3195 67.9685 92.1523C83.4349 91.149 87.197 71.5861 86.4446 60.7178C85.6086 48.6791 80.4253 41.5729 74.8239 37.0584C65.6276 37.6436 59.2738 49.4315 55.2609 66.4028C53.4217 74.2614 55.5117 85.3805 49.2415 89.1426C47.5695 87.6377 46.3155 85.4641 45.4794 82.538C45.4794 82.7052 45.5631 82.7888 45.5631 82.956C44.9779 81.1168 44.6434 78.9431 44.4762 76.3515C44.309 75.0138 44.2254 73.7598 44.2254 72.4221Z" fill="#9E433C"/>
<path d="M86.361 60.6344C85.8594 53.5282 83.8529 48.1777 81.1776 43.9975C83.0169 43.8303 84.7725 43.6631 86.361 43.3287C88.5346 48.4285 90.2067 54.197 90.7919 60.1328C91.7951 71.1683 86.779 90.8984 69.9749 91.9852C66.5472 92.236 63.3703 92.4032 60.4442 92.4032C62.7851 92.4032 65.2931 92.1524 67.8848 91.9852C83.3513 90.982 87.1134 71.4191 86.361 60.6344Z" fill="#77392F"/>
<path d="M44.309 68.5766C44.3926 66.403 44.5598 64.1457 44.8942 61.6377C46.0646 50.6022 47.4023 42.7436 49.0743 37.1422C52.7528 39.5667 58.3542 41.6567 64.7916 42.9108C60.6951 48.0941 57.5182 56.2871 55.1773 66.3194C53.3381 74.178 55.4281 85.2971 49.158 89.0592C47.4859 87.5543 46.2319 85.3807 45.3959 82.4546C45.3959 82.6218 45.4794 82.7054 45.4794 82.8726C44.8942 81.0334 44.5598 78.8597 44.3926 76.268C44.309 75.0976 44.2254 73.8436 44.2254 72.4223C44.2254 72.1715 44.2254 71.9207 44.2254 71.7535C44.2254 71.3355 44.2254 70.8339 44.2254 70.4159C44.309 69.7471 44.309 69.1619 44.309 68.5766Z" fill="#77392F"/>
<path d="M63.7883 61.0522L72.6503 62.7243L72.9847 84.5445L63.5375 83.9592L63.7883 61.0522Z" fill="#EF8F6F"/>
<path d="M70.8947 78.6923C73.9043 75.3482 86.6955 91.2327 100.573 108.037C104.252 112.468 104.754 119.908 97.3129 111.882C81.7629 95.4128 69.3062 80.3644 70.8947 78.6923Z" fill="#FFC397"/>
<path d="M93.3837 107.786C79.7565 92.9882 69.4734 80.2807 70.8111 78.6922C73.4863 75.7662 83.7694 87.7213 95.6409 102.184C94.6377 103.606 93.8853 105.529 93.3837 107.786Z" fill="#EF8F6F"/>
<path d="M85.6085 88.5573L96.8112 95.7471C92.0459 101.432 88.2838 104.107 78.6695 105.194L78.5023 97.7535C83.8529 94.3258 85.6085 88.5573 85.6085 88.5573Z" fill="#E06994"/>
<path d="M70.9783 174.751L78.5024 176.591C81.1777 220.9 69.3063 255.511 68.8883 281.929H66.0458C66.8819 250.829 72.7339 213.292 70.9783 174.751Z" fill="#FFC397"/>
<path d="M62.9523 175.337L55.5953 177.176C51.1643 221.151 61.1967 255.511 60.6114 281.762H63.3703C63.7883 250.746 59.6918 213.543 62.9523 175.337Z" fill="#FFC397"/>
<path d="M70.9782 174.751L78.5024 176.591C79.2548 189.716 79.1712 207.189 76.9975 220.064C74.6567 217.807 72.901 216.469 70.4766 215.466C70.9782 204.263 71.4798 186.372 70.9782 174.751Z" fill="#EF8F6F"/>
<path d="M62.9525 175.337C62.1165 185.035 62.0329 199.916 61.6985 209.279C59.3576 208.025 56.9331 207.189 54.5087 206.019C54.007 197.074 54.9267 184.199 55.5955 177.093L62.9525 175.337Z" fill="#EF8F6F"/>
<path d="M58.1035 80.2809C50.7465 78.2745 40.4634 134.539 36.5341 156.861L38.2898 157.864C38.2898 157.864 43.1387 139.137 48.4056 120.326C54.5085 98.9242 60.2771 80.8662 58.1035 80.2809Z" fill="#FFCD9C"/>
<path d="M44.4762 116.23C48.0711 97.8371 53.6725 79.2774 58.1034 80.2806C60.2771 80.8658 55.3445 98.4223 48.8235 118.905C47.4859 117.651 45.981 117.066 44.4762 116.23Z" fill="#EF8F6F"/>
<path d="M50.5792 91.5673L43.1385 106.198C51.7496 111.548 58.9394 112.886 66.8816 109.458L64.2899 99.6767C55.8461 97.5866 50.5792 91.5673 50.5792 91.5673Z" fill="#E06994"/>
<path d="M51.9168 92.9045C54.2577 95.1618 58.1034 98.1715 64.2899 99.6763L66.8816 109.458C60.7787 112.133 55.1773 111.966 48.9907 109.291C49.7431 106.699 52.8364 99.3419 51.9168 92.9045Z" fill="#CE5788"/>
<path d="M88.2839 225.163C84.1874 214.964 75.66 197.825 39.9619 193.478C39.9619 193.478 43.4732 148.584 49.7433 123.503C51.5826 116.313 49.4925 104.107 50.4957 97.837C52.4186 85.7147 55.5955 84.2098 56.6823 80.9494C58.2707 76.1004 75.9108 76.0168 79.0041 82.1198C80.927 85.8819 79.7565 105.528 81.1777 129.522C83.853 171.156 88.2839 225.163 88.2839 225.163Z" fill="#D6859F"/>
<path d="M54.9264 193.98C53.5052 188.462 52.92 174.083 51.5824 173.665C50.2447 173.247 48.2383 192.475 48.2383 192.475L54.9264 193.98Z" fill="#C46C8C"/>
<path d="M63.5375 197.575C67.6341 188.211 68.2192 170.069 70.5601 170.905C72.9846 171.742 74.6566 204.012 74.6566 204.012L63.5375 197.575Z" fill="#C46C8C"/>
<path d="M73.9879 78.1908L69.139 89.2263L62.6181 77.6056C62.6181 77.6056 66.631 76.686 68.721 76.8532C70.8946 76.9368 73.9879 78.1908 73.9879 78.1908Z" fill="#FFBDD8"/>
<path d="M75.2419 79.2776C75.1583 79.1104 75.0747 78.9432 74.9911 78.6924C76.9139 79.4448 78.4188 80.5316 79.1712 81.9529C81.5957 86.4674 83.1842 105.612 81.5957 127.934C84.1874 148.249 88.284 225.08 88.284 225.08C86.0267 219.478 82.4318 211.871 73.9042 205.35C75.4927 169.15 81.0941 92.7376 75.2419 79.2776Z" fill="#C46C8C"/>
<path d="M50.1613 100.011C56.5986 106.197 69.975 107.702 78.8369 106.448L78.0008 125.175L50.3284 119.825L50.1613 100.011Z" fill="#C46C8C"/>
<path d="M78.2515 140.056L48.6564 129.355L48.9909 127.098L78.0843 132.699L78.2515 140.056Z" fill="#C46C8C"/>
<path d="M49.7433 118.403L47.9876 128.686C58.1871 130.108 69.8914 133.034 84.0201 137.381L83.1841 123.503C70.0586 123.001 58.9395 121.162 49.7433 118.403Z" fill="#F7A1C0"/>
<path d="M75.409 123.085L83.184 123.503L84.02 137.381L74.9074 134.706C76.4958 127.934 75.9106 125.342 75.409 123.085Z" fill="#DD85A9"/>
<path d="M101.827 110.963C107.011 114.558 99.2356 119.741 87.6985 131.529C84.2708 135.124 78.8367 139.137 84.5216 130.944C94.2195 116.815 100.573 110.127 101.827 110.963Z" fill="#FFC397"/>
<path d="M74.5731 283.267H65.126C65.126 283.267 66.2965 278.418 68.0521 279.087C70.2258 279.923 74.5731 283.267 74.5731 283.267Z" fill="#C6B38B"/>
<path d="M57.5184 283.267H64.6245C64.6245 283.267 62.9525 278.418 61.364 279.087C59.4412 279.923 57.5184 283.267 57.5184 283.267Z" fill="#C6B38B"/>
<path d="M73.0683 78.0234L69.3898 86.1328L63.6212 77.3546C63.6212 77.3546 66.3801 74.8465 68.5538 75.0137C70.6438 75.1809 73.0683 78.0234 73.0683 78.0234Z" fill="#EF8F6F"/>
<path d="M51.5824 93.239L54.9266 79.8626L58.9396 78.6086C58.9396 78.525 53.3381 90.0621 51.5824 93.239Z" fill="#FFBDD8"/>
<path d="M81.5121 94.0749L80.1744 80.7822L76.5795 79.1937C76.5795 79.2773 80.0072 88.0556 81.5121 94.0749Z" fill="#FFBDD8"/>
<path d="M50.7465 118.821C55.261 121.413 65.5441 123.336 71.9815 122.751C63.5377 121.664 58.6887 120.911 50.7465 118.821Z" fill="#FFBDD8"/>
<path opacity="0.5" d="M53.6726 84.7951L54.9266 79.8626L58.9395 78.6085C58.9395 78.6085 58.8559 78.6921 58.7723 78.9429C59.7756 78.3577 61.1968 77.9397 62.7016 77.6889V77.6053C62.7016 77.6053 63.1196 77.5217 63.7048 77.4381L63.7885 62.7241C64.3737 62.6405 64.8753 62.6405 65.4605 62.6405C67.9686 62.6405 70.3931 63.1421 72.7339 63.8945L72.9847 77.8561C73.6535 78.1069 74.1551 78.2741 74.1551 78.2741L74.0715 78.4413C74.406 78.5249 74.7404 78.6921 75.0748 78.7757C75.66 79.0265 76.2452 79.2773 76.7468 79.6118C76.6632 79.4445 76.6632 79.2773 76.6632 79.2773L80.2581 80.8658L80.4253 82.7886C82.181 84.1263 74.824 90.6472 66.0457 90.6472C60.6952 90.6472 53.0037 86.0491 53.6726 84.7951Z" fill="#A0513C"/>
<path d="M61.3639 48.3448C63.872 40.2354 68.5538 35.0521 71.5635 35.2193C78.0845 35.7209 82.4318 48.0104 82.0974 58.7951C82.0974 61.8048 78.6697 70.583 71.0619 73.2582C64.9589 71.2518 58.3543 64.062 58.1035 58.9623C57.6854 54.1134 60.9459 49.5988 61.3639 48.3448Z" fill="#FFC397"/>
<path d="M59.8591 51.3544C59.6083 52.5248 59.5246 53.6952 59.5246 54.9493C59.5246 61.1358 64.2064 68.4928 70.9782 73.4254C64.8752 71.4189 58.2706 64.2291 58.0198 59.1294C57.8526 56.1197 58.9394 53.3608 59.8591 51.3544Z" fill="#F7A27C"/>
<path d="M55.6347 52.4603C54.2648 53.0137 53.8273 55.1283 54.6575 57.1832C55.4877 59.2381 57.2713 60.4553 58.6412 59.9018C60.0111 59.3483 60.4487 57.2338 59.6185 55.1789C58.7883 53.124 57.0047 51.9068 55.6347 52.4603Z" fill="#FFC397"/>
<path d="M55.7169 53.5906C54.818 53.9542 54.5385 55.3593 55.0926 56.729C55.6466 58.0986 56.8245 58.9142 57.7233 58.5506C58.6221 58.187 58.9016 56.7819 58.3475 55.4122C57.7934 54.0426 56.6157 53.227 55.7169 53.5906Z" fill="#EF8F6F"/>
<path d="M57.0451 55.8275C56.403 56.0871 56.1912 57.0611 56.572 58.0028C56.9529 58.9445 57.7821 59.4975 58.4242 59.2378C59.0663 58.9782 59.2781 58.0043 58.8973 57.0625C58.5165 56.1208 57.6872 55.5678 57.0451 55.8275Z" fill="#FFC397"/>
<path d="M59.859 60.7177C59.7754 56.7884 59.2738 52.4411 55.4281 50.5182L59.3574 43.5792C59.3574 43.5792 60.8622 47.4249 61.3639 50.351C61.8655 53.4443 61.6983 55.9523 59.859 60.7177Z" fill="#77392F"/>
<path d="M69.8913 64.4799C69.5568 65.7339 71.7306 69.496 73.4027 69.3288C74.6567 69.2452 76.8304 65.9012 76.7468 64.6471C76.3288 63.8947 71.1453 63.8947 69.8913 64.4799Z" fill="#472D1F"/>
<path d="M70.6439 64.7308C72.7339 64.3128 74.3224 64.062 76.1616 64.7308C76.1616 64.7308 75.3256 67.5733 73.7371 67.7405C71.0618 67.9913 70.6439 64.7308 70.6439 64.7308Z" fill="#FCE7DE"/>
<path d="M79.5892 53.8623C79.422 52.8591 78.7532 52.1067 78.0008 52.1903C77.2484 52.3575 76.7469 53.2771 76.9141 54.2804C77.0813 55.2836 77.75 56.036 78.5024 55.9524C79.2548 55.7852 79.7564 54.8656 79.5892 53.8623Z" fill="#5B371E"/>
<path d="M81.2612 53.4446C79.84 52.3577 78.0008 51.4381 75.4928 53.1937C77.8336 52.6085 79.422 52.9429 81.2612 53.4446Z" fill="#5B371E"/>
<path d="M66.6308 54.1133C66.7144 53.0265 67.3833 52.2741 68.1357 52.3577C68.8882 52.4413 69.4734 53.3609 69.3898 54.3641C69.3062 55.4509 68.6373 56.2033 67.8849 56.1197C67.0488 56.0361 66.5472 55.1165 66.6308 54.1133Z" fill="#5B371E"/>
<path d="M64.9589 53.779C66.2965 52.6085 68.0522 51.5217 70.6438 53.1101C68.2194 52.6921 66.7145 53.1937 64.9589 53.779Z" fill="#5B371E"/>
<path d="M63.7047 50.6019C64.2899 49.5151 66.38 46.4218 71.1453 48.261C67.3832 47.9266 65.6276 48.4283 63.7047 50.6019Z" fill="#7F4632"/>
<path d="M82.1809 50.6019C81.5957 49.5151 79.5057 46.4218 74.7404 48.261C78.4188 47.9266 80.1745 48.4283 82.1809 50.6019Z" fill="#7F4632"/>
<path d="M70.8109 61.2194C70.8109 60.5506 71.8142 57.5409 73.1518 57.5409C74.4894 57.5409 75.6599 60.467 75.6599 61.2194C75.6599 61.8882 74.573 62.4734 73.2354 62.4734C71.8978 62.4734 70.8109 61.8882 70.8109 61.2194Z" fill="#F7A27C"/>
<path d="M72.483 60.6342C72.3158 59.9654 72.065 57.0393 72.901 56.8721C73.737 56.6213 75.1582 59.213 75.409 59.7982C75.5762 60.467 75.0746 61.2194 74.3222 61.3866C73.4026 61.6375 72.6502 61.3031 72.483 60.6342Z" fill="#FFC397"/>
<path d="M37.2866 163.883C37.7882 163.967 38.1226 163.047 38.2898 161.96C38.5406 160.873 38.5406 160.037 38.039 159.954C37.5374 159.87 36.9522 160.706 36.785 161.793C36.5342 162.88 36.785 163.799 37.2866 163.883Z" fill="#FFCD9C"/>
<path d="M35.6982 163.632C36.1998 163.716 36.5341 162.796 36.7013 161.709C36.9521 160.622 36.9522 159.786 36.4506 159.703C35.949 159.619 35.3638 160.455 35.1965 161.542C35.0293 162.545 35.1966 163.548 35.6982 163.632Z" fill="#FFCD9C"/>
<path d="M39.0422 160.873C39.3766 160.455 38.6242 159.786 37.7881 159.118C36.9521 158.449 36.1997 158.031 35.8652 158.365C35.5308 158.783 36.0325 159.619 36.8685 160.288C37.7881 161.041 38.7078 161.291 39.0422 160.873Z" fill="#FFCD9C"/>
<path d="M38.0389 155.773C37.6209 155.523 36.9521 156.275 36.3669 157.195C35.6981 158.114 35.3637 158.867 35.7817 159.118C36.1997 159.368 37.0357 158.867 37.6209 157.947C38.2897 156.944 38.4569 156.024 38.0389 155.773Z" fill="#FFCD9C"/>
<path d="M38.2898 164.301C38.7914 164.385 39.1258 163.465 39.293 162.378C39.5438 161.291 39.5438 160.455 39.0422 160.372C38.5406 160.288 37.9554 161.124 37.7882 162.211C37.6209 163.214 37.8718 164.217 38.2898 164.301Z" fill="#FFCD9C"/>
<path d="M82.4318 138.97C82.9334 139.304 83.6858 138.552 84.3546 137.548C85.0233 136.545 85.3577 135.709 84.9398 135.375C84.4382 135.04 83.5186 135.542 82.8498 136.545C82.0974 137.548 81.9302 138.635 82.4318 138.97Z" fill="#EF8F6F"/>
<path d="M83.5185 139.889C84.0201 140.224 84.7725 139.471 85.4414 138.468C86.1102 137.465 86.4446 136.629 86.0266 136.294C85.525 135.96 84.6053 136.462 83.9365 137.465C83.1004 138.468 83.0168 139.555 83.5185 139.889Z" fill="#EF8F6F"/>
<path d="M80.4251 137.381C80.0071 137.799 81.3448 138.301 82.1808 139.053C83.0168 139.806 83.7692 140.307 84.1872 139.889C84.6052 139.471 84.3544 138.468 83.5184 137.716C82.6824 136.88 80.8431 136.88 80.4251 137.381Z" fill="#FFC397"/>
<path d="M86.361 129.104C84.689 130.275 78.0845 134.622 79.1713 136.545C79.7565 137.548 80.9269 139.137 82.8497 137.883C84.3546 136.879 86.5282 133.703 87.7822 130.359L86.361 129.104Z" fill="#FFC397"/>
<path d="M116.123 45.5023L110.522 32.8783L116.541 32.4603L116.123 45.5023Z" fill="#E07599"/>
<path d="M99.6537 35.9715L130.001 37.2256L135.185 0.858643L94.8884 10.3893L99.6537 35.9715Z" fill="#E07599"/>
<path d="M32.6048 54.8656L25.0806 43.5792L31.7688 42.4088L32.6048 54.8656Z" fill="#F4D864"/>
<path d="M43.473 44.0808L8.6946 48.0101L0 13.566L47.1515 19.1674L43.473 44.0808Z" fill="#F4D864"/>
</svg>
