<svg width="15" height="15" viewBox="0 0 15 15" fill="none" xmlns="http://www.w3.org/2000/svg">
<path d="M14.3089 7.2705C14.3089 11.0067 11.2595 14.041 7.49093 14.041C3.72237 14.041 0.672913 11.0067 0.672913 7.2705C0.672913 3.53432 3.72237 0.5 7.49093 0.5C11.2595 0.5 14.3089 3.53432 14.3089 7.2705Z" stroke="#5E727C"/>
<path d="M9.26873 7.68363L9.44122 6.48746H8.36272V5.71122C8.36272 5.38397 8.51338 5.06498 8.9964 5.06498H9.48671V4.04657C9.48671 4.04657 9.04177 3.96576 8.61636 3.96576C7.72818 3.96576 7.14762 4.53867 7.14762 5.5758V6.48746H6.16034V7.68363H7.14762V10.5753H8.36272V7.68363H9.26873Z" fill="#5E727C"/>
</svg>
