<svg width="15" height="15" viewBox="0 0 15 15" fill="none" xmlns="http://www.w3.org/2000/svg">
<path d="M13.531 7.2705C13.531 11.0299 10.6148 14.041 7.06146 14.041C3.50814 14.041 0.591919 11.0299 0.591919 7.2705C0.591919 3.51112 3.50814 0.5 7.06146 0.5C10.6148 0.5 13.531 3.51112 13.531 7.2705Z" stroke="#5E727C"/>
<path d="M7.06227 5.57593C6.0734 5.57593 5.27577 6.33253 5.27577 7.27053C5.27577 8.20854 6.0734 8.96514 7.06227 8.96514C8.05114 8.96514 8.84877 8.20854 8.84877 7.27053C8.84877 6.33253 8.05114 5.57593 7.06227 5.57593ZM7.06227 8.37225C6.42323 8.37225 5.90081 7.87817 5.90081 7.27053C5.90081 6.66289 6.42168 6.16882 7.06227 6.16882C7.70286 6.16882 8.22373 6.66289 8.22373 7.27053C8.22373 7.87817 7.70131 8.37225 7.06227 8.37225ZM9.33855 5.50661C9.33855 5.72636 9.15197 5.90187 8.92185 5.90187C8.69018 5.90187 8.50516 5.72489 8.50516 5.50661C8.50516 5.28833 8.69174 5.11135 8.92185 5.11135C9.15197 5.11135 9.33855 5.28833 9.33855 5.50661ZM10.5218 5.90777C10.4953 5.3783 10.3678 4.9093 9.95892 4.52288C9.55156 4.13647 9.05712 4.01554 8.49894 3.98899C7.92365 3.95802 6.19934 3.95802 5.62405 3.98899C5.06742 4.01406 4.57298 4.135 4.16406 4.52141C3.75514 4.90782 3.6292 5.37682 3.60121 5.90629C3.56856 6.45199 3.56856 8.0876 3.60121 8.63329C3.62764 9.16277 3.75514 9.63177 4.16406 10.0182C4.57298 10.4046 5.06586 10.5255 5.62405 10.5521C6.19934 10.583 7.92365 10.583 8.49894 10.5521C9.05712 10.527 9.55156 10.4061 9.95892 10.0182C10.3663 9.63177 10.4938 9.16277 10.5218 8.63329C10.5544 8.0876 10.5544 6.45346 10.5218 5.90777ZM9.77856 9.21881C9.65729 9.50788 9.42251 9.73058 9.11621 9.8471C8.65753 10.0197 7.56915 9.97983 7.06227 9.97983C6.55539 9.97983 5.46546 10.0182 5.00833 9.8471C4.70359 9.73206 4.46881 9.50936 4.34598 9.21881C4.16406 8.78373 4.20604 7.75133 4.20604 7.27053C4.20604 6.78973 4.16561 5.75586 4.34598 5.32225C4.46725 5.03318 4.70203 4.81048 5.00833 4.69397C5.46701 4.52141 6.55539 4.56123 7.06227 4.56123C7.56915 4.56123 8.65908 4.52288 9.11621 4.69397C9.42095 4.80901 9.65573 5.03171 9.77856 5.32225C9.96048 5.75733 9.9185 6.78973 9.9185 7.27053C9.9185 7.75133 9.96048 8.7852 9.77856 9.21881Z" fill="#5E727C"/>
</svg>
