<svg width="16" height="15" viewBox="0 0 16 15" fill="none" xmlns="http://www.w3.org/2000/svg">
<path d="M14.8165 7.2705C14.8165 11.0067 11.7671 14.041 7.9985 14.041C4.22994 14.041 1.18048 11.0067 1.18048 7.2705C1.18048 3.53432 4.22994 0.5 7.9985 0.5C11.7671 0.5 14.8165 3.53432 14.8165 7.2705Z" stroke="#5E727C"/>
<path d="M9.48969 8.27611C9.13456 8.50067 8.64593 8.58971 8.3232 8.62327L8.59409 8.88911L9.58301 9.87378C9.94462 10.2429 9.35619 10.8197 8.9907 10.4636C8.74314 10.2132 8.38023 9.85185 8.00177 9.47501L7.01285 10.4623C6.64735 10.8172 6.05892 10.2351 6.42442 9.87249C6.67586 9.62213 7.03488 9.26078 7.41334 8.88782L7.68034 8.62197C7.3615 8.58842 6.86509 8.50454 6.50608 8.27482C6.08355 8.00381 5.89821 7.84508 6.06151 7.51341C6.15743 7.325 6.42053 7.16626 6.76918 7.43985C6.76918 7.43985 7.23967 7.81282 7.99918 7.81282C8.75869 7.81282 9.22918 7.43985 9.22918 7.43985C9.57783 7.16755 9.83964 7.325 9.93685 7.51341C10.0976 7.84508 9.91222 8.00381 9.48969 8.27611ZM6.31685 5.63957C6.31685 4.71426 7.07247 3.96576 7.99788 3.96576C8.9233 3.96576 9.67892 4.71426 9.67892 5.63957C9.67892 6.56101 8.9233 7.30951 7.99788 7.30951C7.07247 7.30951 6.31685 6.56101 6.31685 5.63957ZM7.17227 5.63957C7.17227 6.09255 7.54295 6.46164 7.99788 6.46164C8.45281 6.46164 8.8235 6.09255 8.8235 5.63957C8.8235 5.18272 8.45281 4.81363 7.99788 4.81363C7.54295 4.81363 7.17227 5.18272 7.17227 5.63957Z" fill="#5E727C"/>
</svg>
