<svg width="162" height="16" viewBox="0 0 162 16" fill="none" xmlns="http://www.w3.org/2000/svg">
<path d="M8.77748 14.573C8.41625 14.8372 7.95868 15.0053 7.40478 15.1254C6.85088 15.2454 6.29698 15.2935 5.719 15.2935C5.0206 15.2935 4.34629 15.1734 3.72014 14.9573C3.094 14.7411 2.5401 14.3809 2.05844 13.9006C1.57679 13.4202 1.19147 12.7958 0.90248 12.0273C0.613489 11.2588 0.468994 10.3222 0.468994 9.21747C0.468994 8.06471 0.637572 7.10408 0.950646 6.33557C1.26372 5.56707 1.67312 4.94266 2.17886 4.46234C2.68459 3.98203 3.26257 3.6458 3.86464 3.45367C4.49078 3.23753 5.11693 3.14147 5.74308 3.14147C6.41739 3.14147 6.97129 3.1895 7.42886 3.28557C7.88643 3.38163 8.27175 3.47769 8.58482 3.59777L8.12725 5.54305C7.86234 5.42297 7.57335 5.32691 7.21212 5.27888C6.85088 5.23085 6.44147 5.20683 5.93574 5.20683C5.0206 5.20683 4.27404 5.54306 3.69606 6.19148C3.14216 6.83991 2.85317 7.87258 2.85317 9.24149C2.85317 9.84188 2.92542 10.3942 3.04583 10.8986C3.19033 11.4029 3.38299 11.8112 3.64789 12.1714C3.9128 12.5317 4.24996 12.7958 4.65936 12.988C5.06877 13.1801 5.52633 13.2761 6.08023 13.2761C6.58597 13.2761 6.99537 13.2281 7.35661 13.132C7.69377 13.036 8.00684 12.9159 8.27175 12.7478L8.77748 14.573Z" fill="#5394AD"/>
<path d="M11.0413 3.38163H17.977V5.42297H13.3291V8.13675H17.5676V10.1781H13.3291V13.036H18.0734V15.0773H11.0413V3.38163Z" fill="#B7C136"/>
<path d="M29.6811 9.00132L29.922 6.6718H29.8256L29.1032 8.54503L26.6227 12.8919H25.8761L23.2752 8.52101L22.5286 6.6718H22.4564L22.7935 8.97731V15.0533H20.6261V3.38163H22.7213L25.852 8.71314L26.4059 10.058H26.4782L26.9839 8.68912L29.9461 3.38163H32.0172V15.0533H29.7293V9.00132H29.6811Z" fill="#E04C38"/>
<path d="M34.8348 3.38163H41.7706V5.42297H37.1227V8.13675H41.3371V10.1781H37.0986V13.036H41.8429V15.0773H34.8348V3.38163Z" fill="#5394AD"/>
<path d="M51.211 8.56904L51.3555 7.05605H51.2833L50.4885 8.61707L46.1296 15.0293H44.3956V3.38163H46.6835V9.74582L46.5149 11.3068H46.6112L47.43 9.69778L51.789 3.38163H53.4989V15.0533H51.211V8.56904ZM47.9599 0.475723C48.008 0.83596 48.1284 1.07612 48.3452 1.24423C48.5619 1.41234 48.8509 1.48439 49.1881 1.48439C49.9346 1.48439 50.344 1.14817 50.4163 0.499741L52.2706 0.787933C52.1502 1.48439 51.8372 1.98872 51.3073 2.32494C50.7775 2.66116 50.0791 2.80526 49.164 2.80526C48.7064 2.80526 48.297 2.78124 47.9117 2.7092C47.5264 2.63715 47.1892 2.54108 46.9243 2.37297C46.6594 2.20486 46.3945 2.01273 46.2259 1.77257C46.0332 1.5084 45.9369 1.1962 45.8888 0.811943L47.9599 0.475723Z" fill="#FFBE3B"/>
<path d="M62.9392 10.1541H58.6525V15.0293H56.3646V3.38163H58.6525V8.13675H62.9392V3.38163H65.227V15.0533H62.9392V10.1541Z" fill="#CC487E"/>
<path d="M68.0929 3.38163H70.3807V7.56038C70.5012 7.53636 70.6938 7.51235 70.9587 7.48833C71.2236 7.46432 71.4885 7.4403 71.7534 7.4403C72.3073 7.4403 72.8372 7.48833 73.3429 7.60841C73.8486 7.72849 74.2821 7.92062 74.6674 8.20881C75.0528 8.497 75.3418 8.88125 75.5826 9.36156C75.7993 9.84188 75.9197 10.4423 75.9197 11.1868C75.9197 12.5317 75.5344 13.5643 74.7397 14.2368C73.945 14.9092 72.7649 15.2454 71.1995 15.2454C71.0551 15.2454 70.8383 15.2454 70.5975 15.2454C70.3567 15.2454 70.0918 15.2214 69.8028 15.1974C69.5138 15.1734 69.2248 15.1494 68.9358 15.1254C68.6468 15.1013 68.3578 15.0533 68.0929 14.9813V3.38163ZM71.3681 13.1801C71.9943 13.1801 72.5241 13.036 72.9094 12.7478C73.2947 12.4596 73.5115 11.9553 73.5115 11.2828C73.5115 10.9226 73.4633 10.6104 73.3429 10.3702C73.2225 10.1301 73.078 9.96196 72.8853 9.81786C72.6927 9.67377 72.4759 9.60173 72.211 9.5537C71.9461 9.50566 71.6812 9.48164 71.3681 9.48164C71.2236 9.48164 71.031 9.50566 70.8142 9.52968C70.5975 9.55369 70.453 9.57771 70.3567 9.62574V13.108C70.4771 13.132 70.6216 13.1561 70.7901 13.1801C71.0069 13.1801 71.1755 13.1801 71.3681 13.1801ZM77.1239 3.38163H79.4117V15.0533H77.1239V3.38163Z" fill="#E04C38"/>
<path d="M89.0928 8.56904L89.2373 7.05605H89.1651L88.3704 8.61707L84.0114 15.0293H82.2775V3.38163H84.5653V9.74582L84.3967 11.3068H84.4931L85.3119 9.69778L89.6708 3.38163H91.3807V15.0533H89.0928V8.56904ZM85.8417 0.475723C85.8898 0.83596 86.0103 1.07612 86.227 1.24423C86.4437 1.41234 86.7327 1.48439 87.0699 1.48439C87.8165 1.48439 88.2259 1.14817 88.2981 0.499741L90.1525 0.787933C90.0321 1.48439 89.719 1.98872 89.1892 2.32494C88.6594 2.66116 87.961 2.80526 87.0458 2.80526C86.5882 2.80526 86.1788 2.78124 85.7935 2.7092C85.4082 2.63715 85.071 2.54108 84.8061 2.37297C84.5171 2.22887 84.2763 2.01273 84.1077 1.77257C83.9151 1.5084 83.8188 1.1962 83.7706 0.811943L85.8417 0.475723Z" fill="#B7C136"/>
<path d="M105.71 5.39896H101.616V15.0293H99.328V3.38163H107.998V15.0533H105.71V5.39896Z" fill="#FFBE3B"/>
<path d="M110.478 9.21746C110.478 7.27219 110.912 5.78321 111.755 4.72652C112.622 3.66982 113.85 3.14147 115.439 3.14147C116.282 3.14147 117.005 3.28556 117.631 3.57375C118.257 3.86194 118.763 4.27021 119.196 4.79856C119.605 5.32691 119.919 5.97533 120.111 6.71982C120.304 7.46431 120.424 8.30487 120.424 9.19345C120.424 11.1387 119.991 12.6277 119.124 13.6844C118.257 14.7411 117.029 15.2694 115.463 15.2694C114.62 15.2694 113.874 15.1254 113.248 14.8372C112.622 14.549 112.116 14.1407 111.706 13.6124C111.297 13.084 110.984 12.4356 110.791 11.6911C110.574 10.9466 110.478 10.1301 110.478 9.21746ZM112.886 9.21746C112.886 9.81786 112.935 10.3462 113.031 10.8505C113.127 11.3549 113.296 11.7631 113.488 12.1234C113.705 12.4836 113.97 12.7478 114.283 12.9639C114.596 13.1561 114.982 13.2761 115.439 13.2761C116.258 13.2761 116.884 12.9639 117.318 12.3155C117.775 11.6911 117.992 10.6584 117.992 9.24148C117.992 8.6651 117.944 8.13675 117.847 7.65644C117.751 7.17612 117.607 6.74384 117.414 6.3836C117.221 6.02337 116.956 5.73518 116.619 5.51903C116.282 5.30289 115.897 5.20683 115.439 5.20683C114.62 5.20683 113.994 5.54305 113.561 6.19148C113.103 6.79188 112.886 7.82455 112.886 9.21746Z" fill="#5394AD"/>
<path d="M122.881 3.50171C123.338 3.40565 123.868 3.3336 124.422 3.28557C124.976 3.23754 125.554 3.21352 126.108 3.21352C126.686 3.21352 127.264 3.26155 127.866 3.35761C128.444 3.45368 128.974 3.6458 129.455 3.93399C129.913 4.22218 130.298 4.60644 130.611 5.11077C130.9 5.6151 131.045 6.28754 131.045 7.08006C131.045 7.82455 130.924 8.42495 130.659 8.92928C130.395 9.43361 130.057 9.84188 129.648 10.1781C129.214 10.4903 128.733 10.7305 128.203 10.8746C127.673 11.0187 127.095 11.0907 126.517 11.0907C126.469 11.0907 126.373 11.0907 126.252 11.0907C126.132 11.0907 126.011 11.0907 125.867 11.0907C125.722 11.0907 125.602 11.0667 125.482 11.0667C125.361 11.0667 125.265 11.0427 125.217 11.0427V15.0533H122.929V3.50171H122.881ZM126.276 5.18281C126.06 5.18281 125.843 5.18282 125.65 5.20683C125.458 5.23085 125.289 5.25486 125.169 5.25486V9.04936C125.217 9.04936 125.289 9.07338 125.361 9.07338C125.458 9.07338 125.554 9.09739 125.65 9.09739C125.747 9.09739 125.843 9.09739 125.939 9.09739C126.036 9.09739 126.108 9.09739 126.156 9.09739C126.469 9.09739 126.758 9.07337 127.047 9.02534C127.336 8.97731 127.601 8.85723 127.842 8.71314C128.083 8.56904 128.251 8.3529 128.396 8.08873C128.54 7.82455 128.612 7.46432 128.612 7.03203C128.612 6.6718 128.54 6.35959 128.42 6.11943C128.275 5.87927 128.107 5.68715 127.89 5.54305C127.673 5.39896 127.432 5.3029 127.143 5.23085C126.854 5.1588 126.565 5.18281 126.276 5.18281Z" fill="#B7C136"/>
<path d="M141.448 5.39895H138.029V15.0293H135.741V5.39895H132.321V3.38163H141.448V5.39895V5.39895Z" fill="#CC487E"/>
<path d="M147.951 12.4596H144.362L143.471 15.0533H141.183L145.398 3.28555H147.084L151.298 15.0533H148.89L147.951 12.4596ZM144.94 10.6344H147.445L146.578 8.04068L146.217 6.21548H146.144L145.783 8.0647L144.94 10.6344Z" fill="#FFBE3B"/>
<path d="M158.812 5.39896H156.331C156.283 6.45565 156.235 7.41628 156.187 8.28085C156.139 9.14542 156.067 9.93794 155.97 10.6344C155.874 11.3309 155.753 11.9553 155.585 12.4836C155.44 13.012 155.224 13.4683 154.983 13.8765C154.838 14.1407 154.646 14.3328 154.453 14.5009C154.26 14.669 154.044 14.8131 153.851 14.9092C153.634 15.0053 153.442 15.0773 153.225 15.1254C153.008 15.1734 152.815 15.1734 152.647 15.1734C152.382 15.1734 152.165 15.1494 151.997 15.1254C151.828 15.0773 151.659 15.0293 151.491 14.9572L151.732 12.9879C151.804 13.012 151.876 13.036 151.924 13.036C151.997 13.036 152.069 13.06 152.117 13.06C152.286 13.06 152.478 13.012 152.647 12.9159C152.815 12.8198 152.96 12.6757 153.08 12.4596C153.249 12.2194 153.393 11.8592 153.514 11.3789C153.634 10.8986 153.755 10.2982 153.851 9.5777C153.947 8.83321 154.019 7.96865 154.068 6.95998C154.116 5.95132 154.164 4.75053 154.188 3.40565H161.1V15.0773H158.812V5.39896V5.39896Z" fill="#E04C38"/>
</svg>
