<svg width="165" height="10" viewBox="0 0 165 10" fill="none" xmlns="http://www.w3.org/2000/svg">
<path d="M5.70117 6.77344H2.12695L1.32422 9H0.164062L3.42188 0.46875H4.40625L7.66992 9H6.51562L5.70117 6.77344ZM2.4668 5.84766H5.36719L3.91406 1.85742L2.4668 5.84766Z" fill="#5D5D5D"/>
<path d="M13.1515 0.46875L15.9405 7.42969L18.7296 0.46875H20.1886V9H19.0636V5.67773L19.1691 2.0918L16.3683 9H15.507L12.712 2.10938L12.8234 5.67773V9H11.6984V0.46875H13.1515Z" fill="#5D5D5D"/>
<path d="M27.9846 5.41992L29.9475 0.46875H31.2541L28.2366 7.57617C28.0334 8.0293 27.844 8.35156 27.6682 8.54297C27.4924 8.73047 27.2854 8.875 27.0471 8.97656C26.8127 9.07422 26.5178 9.12305 26.1623 9.12305C25.8538 9.12305 25.6565 9.10547 25.5705 9.07031L25.6057 8.17969L26.1389 8.20312C26.5491 8.20312 26.8538 8.00586 27.053 7.61133L27.1995 7.30664L27.4221 6.78516L24.5159 0.46875H25.7756L27.9846 5.41992Z" fill="#5D5D5D"/>
<path d="M36.6068 5.66016V9H35.4818V0.46875H38.6283C39.5619 0.46875 40.2923 0.707031 40.8197 1.18359C41.3509 1.66016 41.6166 2.29102 41.6166 3.07617C41.6166 3.9043 41.3568 4.54297 40.8373 4.99219C40.3216 5.4375 39.5814 5.66016 38.6166 5.66016H36.6068ZM36.6068 4.74023H38.6283C39.2298 4.74023 39.6908 4.59961 40.0111 4.31836C40.3314 4.0332 40.4916 3.62305 40.4916 3.08789C40.4916 2.58008 40.3314 2.17383 40.0111 1.86914C39.6908 1.56445 39.2513 1.40625 38.6927 1.39453H36.6068V4.74023Z" fill="#5D5D5D"/>
<path d="M52.2075 6.29297C52.102 7.19531 51.768 7.89258 51.2055 8.38477C50.647 8.87305 49.9028 9.11719 48.9731 9.11719C47.9653 9.11719 47.1567 8.75586 46.5473 8.0332C45.9419 7.31055 45.6391 6.34375 45.6391 5.13281V4.3125C45.6391 3.51953 45.7798 2.82227 46.061 2.2207C46.3462 1.61914 46.7485 1.1582 47.268 0.837891C47.7876 0.513672 48.3891 0.351562 49.0727 0.351562C49.979 0.351562 50.7055 0.605469 51.2524 1.11328C51.7993 1.61719 52.1177 2.31641 52.2075 3.21094H51.0766C50.979 2.53125 50.7661 2.03906 50.438 1.73438C50.1138 1.42969 49.6587 1.27734 49.0727 1.27734C48.354 1.27734 47.7895 1.54297 47.3794 2.07422C46.9731 2.60547 46.77 3.36133 46.77 4.3418V5.16797C46.77 6.09375 46.9634 6.83008 47.3501 7.37695C47.7368 7.92383 48.2778 8.19727 48.9731 8.19727C49.5981 8.19727 50.0766 8.05664 50.4087 7.77539C50.7446 7.49023 50.9673 6.99609 51.0766 6.29297H52.2075Z" fill="#5D5D5D"/>
<path d="M58.8434 5.16797H57.8063V9H56.6813V0.46875H57.8063V4.23047H58.6852L61.6676 0.46875H63.068L59.8102 4.60547L63.3082 9H61.9313L58.8434 5.16797Z" fill="#5D5D5D"/>
<path d="M71.9304 6.77344H68.3562L67.5534 9H66.3933L69.6511 0.46875H70.6355L73.8991 9H72.7448L71.9304 6.77344ZM68.696 5.84766H71.5964L70.1433 1.85742L68.696 5.84766Z" fill="#5D5D5D"/>
<path d="M82.3924 9V5.67773H80.4237L78.66 9H77.4588L79.4393 5.36719C78.3377 4.93359 77.787 4.1582 77.787 3.04102C77.787 2.22852 78.0526 1.59766 78.5838 1.14844C79.119 0.695312 79.8612 0.46875 80.8104 0.46875H83.5233V9H82.3924ZM78.912 3.04102C78.912 3.55664 79.0721 3.9707 79.3924 4.2832C79.7166 4.5957 80.1659 4.75391 80.7401 4.75781H82.3924V1.39453H80.7928C80.1834 1.39453 79.7166 1.53906 79.3924 1.82812C79.0721 2.11719 78.912 2.52148 78.912 3.04102Z" fill="#5D5D5D"/>
<path d="M100.867 5.00977C100.867 5.8457 100.727 6.57617 100.445 7.20117C100.164 7.82227 99.7657 8.29688 99.2501 8.625C98.7345 8.95312 98.1329 9.11719 97.4454 9.11719C96.7735 9.11719 96.1778 8.95312 95.6583 8.625C95.1387 8.29297 94.7345 7.82227 94.4454 7.21289C94.1602 6.59961 94.0137 5.89062 94.0059 5.08594V4.4707C94.0059 3.65039 94.1485 2.92578 94.4337 2.29688C94.7188 1.66797 95.1212 1.1875 95.6407 0.855469C96.1641 0.519531 96.7618 0.351562 97.4337 0.351562C98.1173 0.351562 98.7188 0.517578 99.2384 0.849609C99.7618 1.17773 100.164 1.65625 100.445 2.28516C100.727 2.91016 100.867 3.63867 100.867 4.4707V5.00977ZM99.7481 4.45898C99.7481 3.44727 99.545 2.67188 99.1387 2.13281C98.7325 1.58984 98.1641 1.31836 97.4337 1.31836C96.7227 1.31836 96.1622 1.58984 95.752 2.13281C95.3458 2.67188 95.1368 3.42188 95.1251 4.38281V5.00977C95.1251 5.99023 95.3302 6.76172 95.7403 7.32422C96.1544 7.88281 96.7227 8.16211 97.4454 8.16211C98.172 8.16211 98.7345 7.89844 99.1329 7.37109C99.5313 6.83984 99.7364 6.08008 99.7481 5.0918V4.45898Z" fill="#5D5D5D"/>
<path d="M110.638 1.39453H106.525V3.94922H108.646C109.536 3.96094 110.232 4.18945 110.732 4.63477C111.232 5.08008 111.482 5.68555 111.482 6.45117C111.482 7.2207 111.23 7.83398 110.726 8.29102C110.222 8.74805 109.534 8.98438 108.663 9H105.394V0.46875H110.638V1.39453ZM106.525 4.875V8.08008H108.581C109.14 8.08008 109.573 7.93164 109.882 7.63477C110.195 7.33789 110.351 6.93945 110.351 6.43945C110.351 5.95898 110.2 5.58008 109.9 5.30273C109.603 5.02539 109.179 4.88281 108.628 4.875H106.525Z" fill="#5D5D5D"/>
<path d="M122.336 0.46875V9H121.211V1.39453H118.153L118 4.77539C117.942 5.9082 117.825 6.75977 117.649 7.33008C117.477 7.90039 117.223 8.32031 116.887 8.58984C116.551 8.85547 116.102 8.99219 115.539 9H115.17V8.08008L115.405 8.06836C115.768 8.04102 116.047 7.92383 116.243 7.7168C116.438 7.50586 116.586 7.17188 116.688 6.71484C116.789 6.25781 116.862 5.55469 116.905 4.60547L117.08 0.46875H122.336Z" fill="#5D5D5D"/>
<path d="M132.078 6.77344H128.503L127.701 9H126.54L129.798 0.46875H130.783L134.046 9H132.892L132.078 6.77344ZM128.843 5.84766H131.744L130.29 1.85742L128.843 5.84766Z" fill="#5D5D5D"/>
<path d="M144.28 6.29297C144.174 7.19531 143.84 7.89258 143.278 8.38477C142.719 8.87305 141.975 9.11719 141.045 9.11719C140.038 9.11719 139.229 8.75586 138.62 8.0332C138.014 7.31055 137.711 6.34375 137.711 5.13281V4.3125C137.711 3.51953 137.852 2.82227 138.133 2.2207C138.419 1.61914 138.821 1.1582 139.34 0.837891C139.86 0.513672 140.461 0.351562 141.145 0.351562C142.051 0.351562 142.778 0.605469 143.325 1.11328C143.872 1.61719 144.19 2.31641 144.28 3.21094H143.149C143.051 2.53125 142.838 2.03906 142.51 1.73438C142.186 1.42969 141.731 1.27734 141.145 1.27734C140.426 1.27734 139.862 1.54297 139.452 2.07422C139.045 2.60547 138.842 3.36133 138.842 4.3418V5.16797C138.842 6.09375 139.036 6.83008 139.422 7.37695C139.809 7.92383 140.35 8.19727 141.045 8.19727C141.67 8.19727 142.149 8.05664 142.481 7.77539C142.817 7.49023 143.04 6.99609 143.149 6.29297H144.28Z" fill="#5D5D5D"/>
<path d="M154.42 1.39453H151.677V9H150.558V1.39453H147.822V0.46875H154.42V1.39453Z" fill="#5D5D5D"/>
<path d="M159.749 3.94922H161.87C162.761 3.96094 163.456 4.18945 163.956 4.63477C164.456 5.08008 164.706 5.68555 164.706 6.45117C164.706 7.2207 164.454 7.83398 163.95 8.29102C163.446 8.74805 162.759 8.98438 161.887 9H158.624V0.46875H159.749V3.94922ZM159.749 4.875V8.08008H161.805C162.364 8.08008 162.798 7.93164 163.106 7.63477C163.419 7.33789 163.575 6.93945 163.575 6.43945C163.575 5.95898 163.425 5.58008 163.124 5.30273C162.827 5.02539 162.403 4.88281 161.852 4.875H159.749Z" fill="#5D5D5D"/>
</svg>
