<svg width="15" height="15" viewBox="0 0 15 15" fill="none" xmlns="http://www.w3.org/2000/svg">
<path d="M13.6929 7.2705C13.6929 11.0299 10.7766 14.041 7.22333 14.041C3.67001 14.041 0.753784 11.0299 0.753784 7.2705C0.753784 3.51112 3.67001 0.5 7.22333 0.5C10.7766 0.5 13.6929 3.51112 13.6929 7.2705Z" stroke="white"/>
<path d="M10.3113 5.94296C10.3143 6.00025 10.3154 6.05825 10.3154 6.11554C10.3154 7.8802 8.87722 9.91434 6.24736 9.91434C5.43942 9.91434 4.6883 9.69332 4.05536 9.31422C4.42974 9.35649 4.80936 9.32946 5.17255 9.23467C5.53573 9.13989 5.87534 8.97922 6.17198 8.76183C5.87366 8.75657 5.58456 8.6644 5.34509 8.49821C5.10563 8.33202 4.92778 8.10012 4.8364 7.83494C5.05081 7.87237 5.27148 7.86452 5.48222 7.81195C5.1586 7.75068 4.86761 7.58684 4.65858 7.34817C4.44955 7.10951 4.33533 6.81072 4.33528 6.50242V6.4858C4.53383 6.58892 4.7559 6.64627 4.98299 6.65307C4.67992 6.46443 4.46538 6.17492 4.38316 5.84362C4.30094 5.51233 4.35725 5.16423 4.54058 4.87037C4.89958 5.28288 5.34751 5.62026 5.85527 5.86062C6.36304 6.10097 6.91927 6.23891 7.48786 6.26548C7.46326 6.16562 7.45093 6.06347 7.45112 5.961C7.45112 5.78575 7.48809 5.61221 7.55994 5.45031C7.63178 5.2884 7.73709 5.14129 7.86983 5.01739C8.00258 4.89348 8.16017 4.79521 8.33361 4.72818C8.50704 4.66114 8.69292 4.62666 8.88063 4.62671C9.07625 4.62641 9.26986 4.66364 9.44943 4.7361C9.62901 4.80855 9.79072 4.91468 9.92455 5.0479C10.2447 4.98873 10.5517 4.87919 10.8325 4.72396C10.7257 5.03312 10.5022 5.29552 10.2037 5.46236C10.4871 5.43099 10.7639 5.36019 11.0249 5.2523C10.8332 5.52052 10.5915 5.75444 10.3113 5.94296Z" fill="white"/>
</svg>
