<svg width="15" height="15" viewBox="0 0 15 15" fill="none" xmlns="http://www.w3.org/2000/svg">
<path d="M13.6887 7.2705C13.6887 11.0299 10.7724 14.041 7.21911 14.041C3.6658 14.041 0.749573 11.0299 0.749573 7.2705C0.749573 3.51112 3.6658 0.5 7.21911 0.5C10.7724 0.5 13.6887 3.51112 13.6887 7.2705Z" stroke="#5E727C"/>
<path d="M10.3071 5.9429C10.3101 6.00019 10.3112 6.05819 10.3112 6.11548C10.3112 7.88014 8.87301 9.91428 6.24314 9.91428C5.43521 9.91428 4.68409 9.69326 4.05115 9.31416C4.42552 9.35642 4.80515 9.32939 5.16833 9.23461C5.53152 9.13983 5.87113 8.97916 6.16777 8.76177C5.86945 8.7565 5.58035 8.66434 5.34088 8.49815C5.10142 8.33196 4.92357 8.10006 4.83219 7.83488C5.0466 7.87231 5.26727 7.86446 5.47801 7.81189C5.15439 7.75062 4.8634 7.58678 4.65437 7.34811C4.44534 7.10945 4.33112 6.81065 4.33107 6.50236V6.48574C4.52962 6.58886 4.75169 6.64621 4.97878 6.65301C4.67571 6.46437 4.46117 6.17486 4.37895 5.84356C4.29673 5.51227 4.35303 5.16417 4.53636 4.87031C4.89537 5.28282 5.3433 5.6202 5.85106 5.86056C6.35882 6.10091 6.91506 6.23885 7.48365 6.26542C7.45905 6.16556 7.44672 6.0634 7.44691 5.96094C7.44691 5.78568 7.48388 5.61215 7.55573 5.45024C7.62757 5.28834 7.73288 5.14123 7.86562 5.01733C7.99837 4.89342 8.15596 4.79515 8.3294 4.72811C8.50283 4.66108 8.68871 4.6266 8.87642 4.62665C9.07204 4.62635 9.26565 4.66358 9.44522 4.73604C9.6248 4.80849 9.78651 4.91462 9.92033 5.04784C10.2405 4.98867 10.5475 4.87913 10.8283 4.7239C10.7215 5.03305 10.498 5.29546 10.1995 5.4623C10.4829 5.43093 10.7597 5.36013 11.0207 5.25224C10.829 5.52045 10.5873 5.75438 10.3071 5.9429Z" fill="#5E727C"/>
</svg>
