<svg width="16" height="15" viewBox="0 0 16 15" fill="none" xmlns="http://www.w3.org/2000/svg">
<path d="M15.1318 7.2705C15.1318 11.0067 12.0824 14.041 8.31381 14.041C4.54524 14.041 1.49579 11.0067 1.49579 7.2705C1.49579 3.53432 4.54524 0.5 8.31381 0.5C12.0824 0.5 15.1318 3.53432 15.1318 7.2705Z" stroke="#5E727C"/>
<path fill-rule="evenodd" clip-rule="evenodd" d="M10.836 8.53087C10.836 8.53087 11.4277 9.17708 11.574 9.47611C11.5769 9.48043 11.5791 9.4852 11.5806 9.49028C11.6403 9.60074 11.6549 9.68734 11.6256 9.75127C11.5762 9.85688 11.409 9.90989 11.3523 9.91434H10.3066C10.2337 9.91434 10.0823 9.8933 9.89784 9.75248C9.75697 9.64363 9.61683 9.46438 9.48108 9.28917C9.27837 9.02898 9.10311 8.80319 8.92564 8.80319C8.90323 8.80314 8.88097 8.80724 8.85978 8.81533C8.72549 8.86227 8.55498 9.0739 8.55498 9.63757C8.55498 9.81399 8.42911 9.91434 8.34093 9.91434H7.86197C7.69878 9.91434 6.84915 9.85122 6.09576 8.97274C5.17259 7.8972 4.34346 5.73964 4.33541 5.72063C4.28382 5.58102 4.39212 5.50495 4.50921 5.50495H5.5652C5.70681 5.50495 5.75291 5.59964 5.78511 5.68461C5.82243 5.78213 5.96074 6.17221 6.1876 6.61043C6.55497 7.32342 6.78073 7.61354 6.96112 7.61354C6.99501 7.61365 7.02833 7.60388 7.05772 7.58522C7.29336 7.44198 7.24945 6.5113 7.23847 6.3195C7.23847 6.28227 7.23811 5.90393 7.11736 5.72103C7.03101 5.58993 6.88391 5.53894 6.795 5.52033C6.81878 5.48229 6.86928 5.42402 6.93404 5.38963C7.0954 5.30061 7.38703 5.28766 7.67646 5.28766H7.83709C8.15103 5.29251 8.23226 5.31477 8.34642 5.34674C8.57621 5.40743 8.5806 5.57212 8.56047 6.13296C8.55462 6.2932 8.5484 6.47367 8.5484 6.6861C8.5484 6.73142 8.54657 6.782 8.54657 6.83339C8.53962 7.12109 8.53047 7.44521 8.71415 7.57834C8.73798 7.59475 8.76548 7.60344 8.79355 7.60343C8.85722 7.60343 9.04785 7.60343 9.56487 6.62217C9.79173 6.1888 9.96736 5.67773 9.97944 5.63929C9.98968 5.61785 10.0204 5.55756 10.0577 5.53328C10.0843 5.51766 10.114 5.50985 10.1441 5.51062H11.3863C11.5217 5.51062 11.6136 5.53328 11.6315 5.58993C11.6615 5.68178 11.6256 5.9622 11.0585 6.81033C10.963 6.95155 10.8792 7.07375 10.8056 7.18058C10.2916 7.92674 10.2916 7.96437 10.836 8.53087Z" fill="#5E727C"/>
</svg>
